<svg xmlns="http://www.w3.org/2000/svg" width="10.927" height="11.103" viewBox="0 0 10.927 11.103">
  <g id="blueprint" transform="translate(-25.19 -21.44)">
    <path id="Path_97" data-name="Path 97" d="M87.881,295.993a.141.141,0,0,1-.141-.141v-.211a.141.141,0,0,1,.282,0v.211A.141.141,0,0,1,87.881,295.993Z" transform="translate(-61.034 -267.582)" fill="#024282" stroke="#024282" stroke-width="0.1"/>
    <path id="Path_98" data-name="Path 98" d="M92.68,100.812H88.2a.459.459,0,0,1-.459-.459V97.032a.141.141,0,0,1,.282,0v3.321a.177.177,0,0,0,.177.177H92.68a.178.178,0,0,0,.177-.177V97.027a.459.459,0,0,1,.459-.459h3.326a.178.178,0,0,0,.177-.177V91.909a.177.177,0,0,0-.177-.177H88.2a.177.177,0,0,0-.177.177v4.026a.141.141,0,0,1-.282,0V91.909a.459.459,0,0,1,.459-.459h8.443a.459.459,0,0,1,.459.459V96.39a.459.459,0,0,1-.459.459H93.316a.177.177,0,0,0-.177.177v3.327A.459.459,0,0,1,92.68,100.812Z" transform="translate(-61.034 -68.319)" fill="#024282" stroke="#024282" stroke-width="0.1"/>
    <path id="Path_99" data-name="Path 99" d="M287.743,201.473h-.521a.176.176,0,0,1-.145-.276l.477-.691a.167.167,0,0,0,.023-.124.128.128,0,0,0-.052-.085.047.047,0,0,0-.042-.009c-.07.017-.164.134-.207.208a.141.141,0,1,1-.246-.137.744.744,0,0,1,.385-.344.328.328,0,0,1,.264.047.407.407,0,0,1,.174.266.448.448,0,0,1-.067.338l-.363.525h.319a.141.141,0,0,1,0,.282Z" transform="translate(-255.633 -174.328)" fill="#024282" stroke="#024282" stroke-width="0.1"/>
    <path id="Path_100" data-name="Path 100" d="M189.788,202.625a.141.141,0,0,1-.141-.141v-1.933l-.556.962a.211.211,0,0,1-.365,0l-.556-.962v1.933a.141.141,0,0,1-.282,0v-2.3a.182.182,0,0,1,.339-.091l.68,1.178.68-1.178a.182.182,0,0,1,.339.091v2.3A.141.141,0,0,1,189.788,202.625Z" transform="translate(-158.834 -174.319)" fill="#024282" stroke="#024282" stroke-width="0.1"/>
    <path id="Path_101" data-name="Path 101" d="M103.239,44.282H94.311a.141.141,0,0,1,0-.282h8.929a.141.141,0,0,1,0,.282Z" transform="translate(-67.313 -21.982)" fill="#024282" stroke="#024282" stroke-width="0.1"/>
    <path id="Path_102" data-name="Path 102" d="M474.891,22.827a.141.141,0,0,1-.141-.141V21.631a.141.141,0,1,1,.282,0v1.056A.141.141,0,0,1,474.891,22.827Z" transform="translate(-438.964)" fill="#024282" stroke="#024282" stroke-width="0.1"/>
    <path id="Path_103" data-name="Path 103" d="M87.881,22.827a.141.141,0,0,1-.141-.141V21.631a.141.141,0,1,1,.282,0v1.056A.141.141,0,0,1,87.881,22.827Z" transform="translate(-61.034)" fill="#024282" stroke="#024282" stroke-width="0.1"/>
    <path id="Path_104" data-name="Path 104" d="M47.891,97.75a.141.141,0,0,1-.141-.141V88.681a.141.141,0,0,1,.282,0v8.928A.141.141,0,0,1,47.891,97.75Z" transform="translate(-21.982 -65.477)" fill="#024282" stroke="#024282" stroke-width="0.1"/>
    <path id="Path_105" data-name="Path 105" d="M26.436,88.822H25.381a.141.141,0,1,1,0-.282h1.056a.141.141,0,1,1,0,.282Z" transform="translate(0 -65.477)" fill="#024282" stroke="#024282" stroke-width="0.1"/>
    <path id="Path_106" data-name="Path 106" d="M26.436,475.832H25.381a.141.141,0,0,1,0-.282h1.056a.141.141,0,1,1,0,.282Z" transform="translate(0 -443.408)" fill="#024282" stroke="#024282" stroke-width="0.1"/>
  </g>
</svg>
