<svg xmlns="http://www.w3.org/2000/svg" width="42.21" height="37.33" viewBox="0 0 42.21 37.33">
  <g id="circle_living_room" transform="translate(0 -29.598)">
    <path id="Path_281" data-name="Path 281" d="M3.584,217.364,3.8,220.44a.929.929,0,0,0,.924.863h1.56a.929.929,0,0,0,.924-.863l.211-3.051H26.481l.211,3.051a.929.929,0,0,0,.924.863h1.56a.929.929,0,0,0,.924-.863l.213-3.076a4.043,4.043,0,0,0,3.584-4.012v-7.008a3.475,3.475,0,0,0-3.471-3.471h-.639a2.032,2.032,0,0,0-.807.166V201.43a3.591,3.591,0,0,0-3.587-3.587H8.5a3.591,3.591,0,0,0-3.587,3.587v1.609a2.032,2.032,0,0,0-.807-.166H3.471A3.475,3.475,0,0,0,0,206.344v7.008a4.043,4.043,0,0,0,3.584,4.012Zm2.408,2.7H5.011l-.185-2.677H6.177Zm21.914,0-.185-2.677h1.352l-.185,2.677ZM6.154,201.43a2.353,2.353,0,0,1,2.35-2.35H25.394a2.353,2.353,0,0,1,2.35,2.35v6.119h-1.11c0-.316,0,1.137,0-3.2a1.243,1.243,0,0,0-1.241-1.241H22.2a1.243,1.243,0,0,0-1.241,1.241c0,4.353,0,2.886,0,3.2H19.786c0-.322,0,1.156,0-3.2a1.243,1.243,0,0,0-1.241-1.241H15.353a1.243,1.243,0,0,0-1.241,1.241c0,4.353,0,2.886,0,3.2H12.938c0-.322,0,1.156,0-3.2a1.243,1.243,0,0,0-1.241-1.241H8.505a1.243,1.243,0,0,0-1.241,1.241c0,4.353,0,2.886,0,3.2H6.154ZM22.2,207.544l0-3.2,3.2,0,0,3.2C25.386,207.551,24.9,207.548,22.2,207.544Zm-6.848,0,0-3.2,3.2,0,0,3.2Zm-6.848,0,0-3.2,3.2,0,0,3.2c-.008,0-.595,0-3.2,0Zm-7.264-1.2a2.237,2.237,0,0,1,2.234-2.234h.639a.807.807,0,0,1,.807.807v2.718a2.305,2.305,0,0,0-1.683,2.217v2.259a2.3,2.3,0,0,0,2.3,2.3H7.619a.618.618,0,0,0,0-1.237H5.536a1.066,1.066,0,0,1-1.065-1.065V209.85a1.066,1.066,0,0,1,1.065-1.065H28.362a1.066,1.066,0,0,1,1.065,1.065v2.259a1.066,1.066,0,0,1-1.065,1.065H10.5a.618.618,0,0,0,0,1.237H28.362a2.3,2.3,0,0,0,2.3-2.3V209.85a2.305,2.305,0,0,0-1.683-2.217v-2.718a.807.807,0,0,1,.807-.807h.639a2.237,2.237,0,0,1,2.234,2.234v7.008a2.8,2.8,0,0,1-2.8,2.8H4.037a2.8,2.8,0,0,1-2.8-2.8Z" transform="translate(0 -154.375)" fill="#024282"/>
    <path id="Path_282" data-name="Path 282" d="M404.022,134.588a3.459,3.459,0,0,0-2.574-2.062v-5.5a.618.618,0,1,0-1.237,0v5.444h-.941V116.176h.941v7.965a.618.618,0,0,0,1.237,0v-7.965h2.1a.92.92,0,0,0,.9-1.1l-1.416-7.2a.922.922,0,0,0-.9-.743h-1.768v-.664a.618.618,0,1,0-1.237,0v.664h-1.768a.922.922,0,0,0-.9.743l-1.416,7.2a.92.92,0,0,0,.9,1.1h2.1v16.35a3.458,3.458,0,0,0-2.574,2.062l-.477,1.13a.848.848,0,0,0,.781,1.178h7.955a.848.848,0,0,0,.781-1.178Zm-6.407-26.216h4.252l.878,4.464h-6.008Zm-1.121,5.7h6.494l.17.867h-6.835Zm-.145,21.587.25-.591a2.225,2.225,0,0,1,2.053-1.362h2.178a2.225,2.225,0,0,1,2.053,1.362l.25.591h-6.784Z" transform="translate(-362.357 -69.969)" fill="#fbc000"/>
    <path id="Path_283" data-name="Path 283" d="M95.79,35.679a.618.618,0,0,0-.618.618v3.515a1.312,1.312,0,0,0,1.311,1.311h15.584a1.312,1.312,0,0,0,1.311-1.311v-8.9a1.312,1.312,0,0,0-1.311-1.311H96.483a1.312,1.312,0,0,0-1.311,1.311v2.5a.618.618,0,1,0,1.237,0v-2.5a.074.074,0,0,1,.074-.074h15.584a.074.074,0,0,1,.074.074v7.41l-3.807-3.807a1.066,1.066,0,0,0-1.509,0l-2.55,2.55-2.55-2.55a1.066,1.066,0,0,0-1.509,0l-3.807,3.807V36.3A.618.618,0,0,0,95.79,35.679Zm11.789-.172,4.38,4.38H107.1l-1.949-1.949Zm-6.61,0,4.38,4.38H96.591Z" transform="translate(-87.326)" fill="#fbc000"/>
    <path id="Path_284" data-name="Path 284" d="M187.836,56.351a1.753,1.753,0,1,0-1.753,1.753A1.754,1.754,0,0,0,187.836,56.351Zm-2.268,0a.516.516,0,1,1,.516.516A.517.517,0,0,1,185.568,56.351Z" transform="translate(-169.135 -22.939)" fill="#fbc000"/>
  </g>
</svg>
