<svg xmlns="http://www.w3.org/2000/svg" width="41.579" height="41.579" viewBox="0 0 41.579 41.579">
  <g id="circle_plans" transform="translate(0)">
    <g id="Group_733" data-name="Group 733" transform="translate(8.114)">
      <g id="Group_732" data-name="Group 732">
        <path id="Path_285" data-name="Path 285" d="M132.669,3.646a.708.708,0,0,0,.708-.708V.708A.708.708,0,0,0,132.669,0H100.62a.708.708,0,0,0-.708.708V32.757a.708.708,0,0,0,.708.708h32.049a.708.708,0,0,0,.708-.708V5.3a.708.708,0,1,0-1.416,0V17.432h-2.813a.708.708,0,0,0,0,1.416h2.813v13.2H111.726V28.622a.708.708,0,1,0-1.416,0v3.427h-8.982V1.416h8.982V23.523a.708.708,0,1,0,1.416,0V18.849h12.606a.708.708,0,1,0,0-1.416H111.726V1.416h20.235V2.938A.708.708,0,0,0,132.669,3.646Z" transform="translate(-99.912)" fill="#024282"/>
      </g>
    </g>
    <g id="Group_735" data-name="Group 735" transform="translate(0)">
      <g id="Group_734" data-name="Group 734">
        <path id="Path_286" data-name="Path 286" d="M5.984,4.087,3.647.334a.708.708,0,0,0-1.2,0L.107,4.087a.708.708,0,0,0,.6,1.083H2.337V8.131a.708.708,0,0,0,1.416,0V5.17H5.383a.708.708,0,0,0,.6-1.083Zm-4-.334L3.045,2.048,4.107,3.753Z" transform="translate(0)" fill="#fbc000"/>
      </g>
    </g>
    <g id="Group_737" data-name="Group 737" transform="translate(0 9.312)">
      <g id="Group_736" data-name="Group 736" transform="translate(0)">
        <path id="Path_287" data-name="Path 287" d="M6,134.011a.708.708,0,0,0-.619-.364H3.754V115.371a.708.708,0,0,0-1.416,0v18.276H.708a.708.708,0,0,0-.6,1.083l2.337,3.753a.708.708,0,0,0,1.2,0l2.337-3.753A.708.708,0,0,0,6,134.011Zm-2.956,2.757-1.062-1.705H4.107Z" transform="translate(0 -114.663)" fill="#fbc000"/>
      </g>
    </g>
    <g id="Group_739" data-name="Group 739" transform="translate(8.114 35.489)">
      <g id="Group_738" data-name="Group 738">
        <path id="Path_288" data-name="Path 288" d="M133.044,439.449l-3.753-2.337a.708.708,0,0,0-1.082.6v1.629H105.082v-1.629a.708.708,0,0,0-1.083-.6l-3.753,2.337a.708.708,0,0,0,0,1.2L104,442.988a.708.708,0,0,0,1.083-.6v-1.629h23.126v1.629a.708.708,0,0,0,1.083.6l3.753-2.337a.708.708,0,0,0,0-1.2Zm-29.378,1.663-1.705-1.062,1.705-1.062Zm25.959,0v-2.123l1.705,1.062Z" transform="translate(-99.912 -437.005)" fill="#fbc000"/>
      </g>
    </g>
  </g>
</svg>
