<svg xmlns="http://www.w3.org/2000/svg" width="35.291" height="46.599" viewBox="0 0 35.291 46.599">
  <g id="construction" transform="translate(-9.28 -2)">
    <path id="Path_79" data-name="Path 79" d="M23.724,33.451H19.152a.776.776,0,0,0-.777.777V38.8a.776.776,0,0,0,.777.777h4.572A.776.776,0,0,0,24.5,38.8V34.228A.776.776,0,0,0,23.724,33.451Zm-.777,4.572H19.928V35h3.019Z" transform="translate(-2.031 -7.025)" fill="#fbc000"/>
    <path id="Path_80" data-name="Path 80" d="M33.4,33.451H28.833a.776.776,0,0,0-.777.777V38.8a.776.776,0,0,0,.777.777H33.4a.776.776,0,0,0,.777-.777V34.228A.776.776,0,0,0,33.4,33.451Zm-.777,4.572H29.609V35h3.019Z" transform="translate(-4.194 -7.025)" fill="#fbc000"/>
    <path id="Path_81" data-name="Path 81" d="M43.087,33.451H38.515a.776.776,0,0,0-.777.777V38.8a.776.776,0,0,0,.777.777h4.572a.776.776,0,0,0,.777-.777V34.228A.776.776,0,0,0,43.087,33.451Zm-.777,4.572H39.291V35H42.31Z" transform="translate(-6.356 -7.025)" fill="#fbc000"/>
    <path id="Path_82" data-name="Path 82" d="M33.4,22.43H28.833a.777.777,0,0,0-.777.777v4.572a.777.777,0,0,0,.777.777H33.4a.777.777,0,0,0,.777-.777V23.207A.777.777,0,0,0,33.4,22.43ZM32.628,27H29.609V23.983h3.019Z" transform="translate(-4.194 -4.563)" fill="#fbc000"/>
    <path id="Path_83" data-name="Path 83" d="M43.087,22.43H38.515a.777.777,0,0,0-.777.777v4.572a.777.777,0,0,0,.777.777h4.572a.777.777,0,0,0,.777-.777V23.207A.777.777,0,0,0,43.087,22.43ZM42.31,27H39.291V23.983H42.31Z" transform="translate(-6.356 -4.563)" fill="#fbc000"/>
    <path id="Path_84" data-name="Path 84" d="M10.057,34.619a.776.776,0,0,0-.777.777V47.822a.776.776,0,0,0,.777.777H43.794a.776.776,0,0,0,.777-.777V35.4a.776.776,0,0,0-.777-.777H40.711V14.041h.221a.777.777,0,1,0,0-1.553h-.221V8.215h.221a.777.777,0,1,0,0-1.553h-.221V3.181a.777.777,0,1,0-1.553,0V6.661h-7.12V2.777a.777.777,0,0,0-1.553,0V6.661h-7.12V2.777a.777.777,0,1,0-1.553,0V6.661h-7.12V4.255a.777.777,0,0,0-1.553,0V6.661h-.221a.777.777,0,1,0,0,1.553h.221v4.273H10.165a.777.777,0,1,0,0,1.553h2.975V34.619H10.057ZM23.709,47.046V40.482h6.433v6.563Zm19.308,0H31.695v-7.34a.776.776,0,0,0-.777-.777H22.932a.776.776,0,0,0-.777.777v7.34H10.833V36.173H43.018V47.046Zm-22.1-33v4.094H14.693V14.041ZM39.158,8.215v4.27h-7.12V8.215Zm-8.673,0v4.27h-7.12V8.215Zm-8.673,0v4.27h-7.12V8.215Zm-7.12,11.474h7a.777.777,0,0,0,.777-.777v-4.87H39.158V34.62H14.693Z" fill="#024282"/>
    <path id="Path_85" data-name="Path 85" d="M46.385,49.549H41.644a.776.776,0,0,0-.777.777v4.741a.776.776,0,0,0,.777.777h4.741a.776.776,0,0,0,.777-.777V50.326A.776.776,0,0,0,46.385,49.549Zm-.777,4.741H42.42V51.1h3.188Z" transform="translate(-7.055 -10.62)" fill="#fbc000"/>
    <path id="Path_86" data-name="Path 86" d="M20.546,49.549H15.806a.776.776,0,0,0-.777.777v4.741a.776.776,0,0,0,.777.777h4.741a.776.776,0,0,0,.777-.777V50.326A.776.776,0,0,0,20.546,49.549ZM19.77,54.29H16.582V51.1H19.77Z" transform="translate(-1.284 -10.62)" fill="#fbc000"/>
  </g>
</svg>
