<svg xmlns="http://www.w3.org/2000/svg" width="44.198" height="44.198" viewBox="0 0 44.198 44.198">
  <g id="graphic-design" transform="translate(0.001)">
    <path id="Path_76" data-name="Path 76" d="M38.2,6.865h5.134A.863.863,0,0,0,44.2,6V.863A.863.863,0,0,0,43.334,0H38.2a.863.863,0,0,0-.863.863V2.569H25.528V.863A.863.863,0,0,0,24.665,0H19.532a.863.863,0,0,0-.863.863V2.569H6.859V.863A.863.863,0,0,0,6,0H.863A.863.863,0,0,0,0,.863V6a.863.863,0,0,0,.863.863H6A.863.863,0,0,0,6.859,6V4.3h7.181A19.542,19.542,0,0,0,2.583,21.236H.863A.863.863,0,0,0,0,22.1v5.138a.863.863,0,0,0,.863.863H6a.863.863,0,0,0,.863-.863V22.1A.863.863,0,0,0,6,21.236H4.312A17.9,17.9,0,0,1,18.668,4.616V6a.863.863,0,0,0,.863.863h5.134A.863.863,0,0,0,25.528,6V4.616A17.9,17.9,0,0,1,39.885,21.236H38.2a.863.863,0,0,0-.863.863v5.138a.863.863,0,0,0,.863.863h5.134a.863.863,0,0,0,.863-.863V22.1a.863.863,0,0,0-.863-.863h-1.72A19.542,19.542,0,0,0,30.156,4.3h7.181V6a.863.863,0,0,0,.863.863ZM5.133,5.138H1.726V1.726H5.133Zm0,21.236H1.726V22.962H5.133Zm37.338,0H39.064V22.962h3.407ZM23.8,5.138H20.395V1.726H23.8ZM39.064,1.726h3.407V5.138H39.064Zm0,0" fill="#fbc000"/>
    <path id="Path_77" data-name="Path 77" d="M164.418,105.447a.863.863,0,0,0-1.512,0l-3.585,6.509a.863.863,0,0,0,1.512.833l1.966-3.569v6.366a2.935,2.935,0,1,0,1.726,0V109.22l5.922,10.753a13.99,13.99,0,0,0-3.787,7.213h-6a13.994,13.994,0,0,0-3.787-7.213l.989-1.8a.863.863,0,0,0-1.512-.833l-1.308,2.376a.863.863,0,0,0,.173,1.053,12.251,12.251,0,0,1,3.684,6.413h-.8a2.589,2.589,0,0,0-1.169,4.9v7.186a.863.863,0,1,0,1.726,0v-6.906h10.014v6.906a.863.863,0,1,0,1.726,0v-7.186a2.589,2.589,0,0,0-1.169-4.9h-.8a12.252,12.252,0,0,1,3.684-6.413.863.863,0,0,0,.173-1.053Zm-.756,14.153a1.209,1.209,0,1,1,1.209-1.209A1.21,1.21,0,0,1,163.662,119.6Zm6.427,10.175a.864.864,0,0,1-.863.863H158.1a.863.863,0,1,1,0-1.726h11.128A.864.864,0,0,1,170.089,129.775Zm0,0" transform="translate(-141.564 -95.936)" fill="#024282"/>
    <path id="Path_78" data-name="Path 78" d="M187.492,213.847a.861.861,0,1,0-.611-.252A.869.869,0,0,0,187.492,213.847Zm0,0" transform="translate(-170.519 -193.81)" fill="#024282"/>
  </g>
</svg>
