<svg xmlns="http://www.w3.org/2000/svg" width="44.317" height="43.905" viewBox="0 0 44.317 43.905">
  <g id="misja_4" transform="translate(-1 -1.279)">
    <g id="XMLID_720_" transform="translate(1 1.279)">
      <g id="XMLID_852_">
        <g id="XMLID_739_" transform="translate(4.432 3.693)">
          <g id="Group_511" data-name="Group 511" transform="translate(0 0)">
            <path id="Path_143" data-name="Path 143" d="M10.648,16.779a.739.739,0,0,1-.739-.739V13.365a.734.734,0,0,1,.292-.588,2.932,2.932,0,0,0,1.185-2.35V8.211a2.954,2.954,0,0,0-5.909,0v2.216a2.932,2.932,0,0,0,1.185,2.35.737.737,0,0,1,.292.589v2.675a.739.739,0,1,1-1.477,0V13.713A4.382,4.382,0,0,1,4,10.427V8.211a4.432,4.432,0,0,1,8.863,0v2.216a4.384,4.384,0,0,1-1.477,3.287V16.04a.739.739,0,0,1-.739.739Z" transform="translate(-4 -3.779)" fill="#024282"/>
          </g>
        </g>
        <g id="XMLID_737_" transform="translate(8.869 9.602)">
          <g id="Group_512" data-name="Group 512">
            <path id="Path_144" data-name="Path 144" d="M7.741,12.875a.738.738,0,0,1-.146-1.461,2.969,2.969,0,0,0,2.358-2.9.739.739,0,1,1,1.477,0A4.448,4.448,0,0,1,7.89,12.859a.732.732,0,0,1-.149.016Z" transform="translate(-7.004 -7.779)" fill="#024282"/>
          </g>
        </g>
        <g id="XMLID_735_" transform="translate(10.341 15.184)">
          <g id="Group_513" data-name="Group 513">
            <path id="Path_145" data-name="Path 145" d="M11.507,14.225a.724.724,0,0,1-.291-.061L8.447,12.975a.739.739,0,0,1,.582-1.358L11.8,12.807a.739.739,0,0,1-.291,1.418Z" transform="translate(-8 -11.558)" fill="#024282"/>
          </g>
        </g>
        <g id="XMLID_721_" transform="translate(0 15.17)">
          <g id="Group_514" data-name="Group 514">
            <path id="Path_146" data-name="Path 146" d="M5.432,23.171a.728.728,0,0,1-.306-.066L2.3,21.819A2.225,2.225,0,0,1,1,19.8V17.754a5.145,5.145,0,0,1,3.123-4.742l3.231-1.4a.738.738,0,1,1,.588,1.355l-3.234,1.4a3.675,3.675,0,0,0-2.231,3.386V19.8a.743.743,0,0,0,.433.674L5.737,21.76a.739.739,0,0,1-.306,1.411Z" transform="translate(-1 -11.548)" fill="#024282"/>
          </g>
        </g>
        <g id="XMLID_5197_" transform="translate(4.432 3.693)">
          <g id="Group_515" data-name="Group 515" transform="translate(0 0)">
            <path id="Path_147" data-name="Path 147" d="M11.3,9.555A6.43,6.43,0,0,1,7.229,8.09a.737.737,0,1,1,.926-1.148,4.878,4.878,0,0,0,3.228,1.136,2.954,2.954,0,0,0-5.906.133v.547A.739.739,0,0,1,4,8.757V8.211a4.432,4.432,0,0,1,8.863,0v.517a.74.74,0,0,1-.622.73,5.9,5.9,0,0,1-.945.1Z" transform="translate(-4 -3.779)" fill="#024282"/>
          </g>
        </g>
        <g id="XMLID_5195_" transform="translate(31.022 3.695)">
          <g id="Group_516" data-name="Group 516">
            <path id="Path_148" data-name="Path 148" d="M28.648,16.778a.739.739,0,0,1-.739-.739V13.364a.734.734,0,0,1,.292-.588,2.932,2.932,0,0,0,1.185-2.35V8.21a2.954,2.954,0,0,0-5.909,0v2.216a2.932,2.932,0,0,0,1.185,2.35.737.737,0,0,1,.292.589v2.675a.739.739,0,1,1-1.477,0V13.714A4.382,4.382,0,0,1,22,10.428V8.212a4.432,4.432,0,0,1,8.863,0v2.216a4.384,4.384,0,0,1-1.477,3.287v2.327A.739.739,0,0,1,28.648,16.778Z" transform="translate(-22 -3.78)" fill="#024282"/>
          </g>
        </g>
        <g id="XMLID_5194_" transform="translate(35.459 9.602)">
          <g id="Group_517" data-name="Group 517">
            <path id="Path_149" data-name="Path 149" d="M25.741,12.875a.738.738,0,0,1-.146-1.461,2.969,2.969,0,0,0,2.358-2.9.739.739,0,1,1,1.477,0,4.448,4.448,0,0,1-3.539,4.342A.732.732,0,0,1,25.741,12.875Z" transform="translate(-25.004 -7.779)" fill="#024282"/>
          </g>
        </g>
        <g id="XMLID_730_" transform="translate(29.948 15.184)">
          <g id="Group_518" data-name="Group 518">
            <path id="Path_150" data-name="Path 150" d="M22.012,14.131a.739.739,0,0,1-.291-1.418l2.551-1.1a.739.739,0,0,1,.582,1.358l-2.551,1.1A.719.719,0,0,1,22.012,14.131Z" transform="translate(-21.273 -11.558)" fill="#024282"/>
          </g>
        </g>
        <g id="XMLID_715_" transform="translate(36.931 15.17)">
          <g id="Group_519" data-name="Group 519">
            <path id="Path_151" data-name="Path 151" d="M28.954,23.171a.739.739,0,0,1-.306-1.411l2.827-1.285a.741.741,0,0,0,.433-.674V17.754a3.671,3.671,0,0,0-2.226-3.383l-3.238-1.406a.738.738,0,1,1,.588-1.355l3.234,1.4a5.143,5.143,0,0,1,3.12,4.74V19.8a2.225,2.225,0,0,1-1.3,2.018L29.26,23.1a.751.751,0,0,1-.306.066Z" transform="translate(-26 -11.548)" fill="#024282"/>
          </g>
        </g>
        <g id="XMLID_724_" transform="translate(18.356 4.15)">
          <g id="Group_520" data-name="Group 520" transform="translate(0 0)">
            <path id="Path_152" data-name="Path 152" d="M19.164,7.2a8.726,8.726,0,0,1-5.492-1.824.738.738,0,1,1,.987-1.1C16.115,5.587,19.6,6.271,21.6,5.2a.739.739,0,1,1,.7,1.3,6.706,6.706,0,0,1-3.138.7Z" transform="translate(-13.426 -4.089)" fill="#024282"/>
          </g>
        </g>
        <g id="XMLID_710_" transform="translate(7.386)">
          <g id="XMLID_712_" transform="translate(10.662 16.755)">
            <g id="Group_521" data-name="Group 521">
              <path id="Path_153" data-name="Path 153" d="M17.318,16.547a4.348,4.348,0,0,1-4.062-2.923.738.738,0,0,1,1.4-.467,2.887,2.887,0,0,0,2.662,1.912,3.017,3.017,0,0,0,2.726-1.959.739.739,0,0,1,1.393.492,4.481,4.481,0,0,1-4.119,2.946Z" transform="translate(-13.218 -12.621)" fill="#024282"/>
            </g>
          </g>
          <g id="XMLID_726_" transform="translate(16.988 13.74)">
            <g id="Group_522" data-name="Group 522" transform="translate(0)">
              <path id="Path_154" data-name="Path 154" d="M29.318,23.43a.739.739,0,0,1-.739-.739V22.28a5.165,5.165,0,0,0-3.436-4.872l-6.162-2.186A2.211,2.211,0,0,1,17.5,13.136V11.319a.739.739,0,0,1,1.477,0v1.817a.736.736,0,0,0,.495.691l6.163,2.188a6.642,6.642,0,0,1,4.421,6.265v.414A.738.738,0,0,1,29.318,23.43Z" transform="translate(-17.5 -10.58)" fill="#024282"/>
            </g>
          </g>
          <g id="XMLID_725_" transform="translate(0 13.738)">
            <g id="Group_523" data-name="Group 523">
              <path id="Path_155" data-name="Path 155" d="M6.739,23.431A.739.739,0,0,1,6,22.692v-.4a6.666,6.666,0,0,1,4.435-6.28l6.148-2.157a.737.737,0,0,0,.5-.693V11.318a.739.739,0,1,1,1.477,0v1.847a2.216,2.216,0,0,1-1.485,2.087l-6.144,2.155a5.184,5.184,0,0,0-3.451,4.887v.4A.738.738,0,0,1,6.739,23.431Z" transform="translate(-6 -10.579)" fill="#024282"/>
            </g>
          </g>
          <g id="XMLID_706_" transform="translate(8.863)">
            <g id="Group_524" data-name="Group 524">
              <path id="Path_156" data-name="Path 156" d="M17.909,17.529a.739.739,0,0,1,0-1.477c1.533,0,4.432-1.389,4.432-6.648V7.188a4.432,4.432,0,1,0-8.863,0V9.4c0,2.547.681,4.5,1.968,5.634a.738.738,0,0,1-.978,1.106C13.341,15.149,12,13.172,12,9.4V7.188a5.909,5.909,0,1,1,11.818,0V9.4C23.818,15.831,19.953,17.529,17.909,17.529Z" transform="translate(-12 -1.279)" fill="#024282"/>
            </g>
          </g>
        </g>
      </g>
      <g id="XMLID_1069_" transform="translate(0.723 27.169)">
        <g id="XMLID_908_" transform="translate(29.697)">
          <g id="Group_525" data-name="Group 525">
            <path id="Path_157" data-name="Path 157" d="M24.585,32.387a.738.738,0,0,1-.326-1.4l3.653-1.81a.738.738,0,0,1,.654,0l2.387,1.183-.389-2.635a.738.738,0,0,1,.2-.623l1.866-1.907L30,24.747a.743.743,0,0,1-.53-.386L28.239,22,27,24.361a.743.743,0,0,1-.53.386l-2.628.448L25.709,27.1a.739.739,0,1,1-1.056,1.033L21.8,25.22a.738.738,0,0,1,.4-1.244l3.658-.623,1.721-3.285a.739.739,0,0,1,1.309,0l1.72,3.285,3.659.623a.738.738,0,0,1,.4,1.244l-2.6,2.652.541,3.669a.743.743,0,0,1-.3.7.732.732,0,0,1-.762.064l-3.324-1.647-3.325,1.647a.725.725,0,0,1-.331.078Z" transform="translate(-21.592 -19.671)" fill="#fbc000"/>
          </g>
        </g>
        <g id="XMLID_1071_" transform="translate(13.707 1.995)">
          <g id="Group_526" data-name="Group 526">
            <path id="Path_158" data-name="Path 158" d="M14.177,35.762a.738.738,0,0,1-.731-.846l.647-4.407-3.114-3.185a.738.738,0,0,1,.4-1.244l4.393-.747,2.065-3.946a.77.77,0,0,1,1.31,0l2.065,3.946,4.393.747a.738.738,0,0,1,.4,1.244L22.9,30.509l.649,4.407a.743.743,0,0,1-.3.7.732.732,0,0,1-.762.064L18.5,33.706l-3.991,1.978A.734.734,0,0,1,14.177,35.762ZM13.021,27.3,15.4,29.738a.744.744,0,0,1,.2.623l-.5,3.373,3.056-1.514a.729.729,0,0,1,.654,0l3.055,1.514-.5-3.373a.738.738,0,0,1,.2-.623L23.971,27.3l-3.364-.573a.743.743,0,0,1-.53-.386L18.5,23.319,16.916,26.34a.743.743,0,0,1-.53.386Z" transform="translate(-10.768 -21.022)" fill="#fbc000"/>
          </g>
        </g>
        <g id="XMLID_760_" transform="translate(0 0.001)">
          <g id="Group_527" data-name="Group 527">
            <path id="Path_159" data-name="Path 159" d="M11.791,32.387a.746.746,0,0,1-.328-.077L8.139,30.663,4.814,32.311a.74.74,0,0,1-1.059-.77L4.3,27.872,1.7,25.221a.738.738,0,0,1,.4-1.244l3.659-.623,1.721-3.285a.739.739,0,0,1,1.309,0l1.72,3.285,3.658.623a.738.738,0,0,1,.4,1.244l-2.85,2.913A.739.739,0,0,1,10.67,27.1l1.864-1.907-2.628-.448a.74.74,0,0,1-.53-.386L8.141,22,6.9,24.361a.743.743,0,0,1-.53.386l-2.629.448L5.61,27.1a.744.744,0,0,1,.2.623L5.426,30.36l2.389-1.183a.738.738,0,0,1,.654,0l3.652,1.81a.739.739,0,0,1,.335.99A.748.748,0,0,1,11.791,32.387Z" transform="translate(-1.489 -19.672)" fill="#fbc000"/>
          </g>
        </g>
      </g>
    </g>
  </g>
</svg>
