<svg xmlns="http://www.w3.org/2000/svg" width="46.262" height="46.168" viewBox="0 0 46.262 46.168">
  <g id="misja_1" transform="translate(-1 -1)">
    <path id="Path_116" data-name="Path 116" d="M2.492,42.764H21.136V41.273H2.492V2.492h26.1V6.221a1.492,1.492,0,0,0,1.492,1.492h3.729v14.17h1.492V6.966a.746.746,0,0,0-.216-.53L29.87,1.216A.746.746,0,0,0,29.34,1H2.492A1.492,1.492,0,0,0,1,2.492V41.273A1.492,1.492,0,0,0,2.492,42.764ZM30.086,3.543l2.677,2.677H30.086Z" transform="translate(0 0)" fill="#024282"/>
    <path id="Path_117" data-name="Path 117" d="M54.279,38.163l3.729-3.729a.717.717,0,0,0-.388-1.208L55.465,32.8l-.425-2.155a.747.747,0,0,0-1.26-.38l-3.692,3.729a.746.746,0,0,0-.216.53V37.38l-5.586,5.579a.749.749,0,0,0,1.059,1.059l5.579-5.586h2.856A.746.746,0,0,0,54.279,38.163Zm-2.946-1.275V34.777l2.483-2.483.254,1.268a.746.746,0,0,0,.589.589l1.268.254-2.483,2.483Z" transform="translate(-10.948 -7.384)" fill="#fbc000"/>
    <path id="Path_118" data-name="Path 118" d="M43.219,42.492a4.111,4.111,0,0,1,.53.052l1.238-1.231A5.154,5.154,0,0,0,43.219,41a5.221,5.221,0,1,0,4.922,3.49L46.9,45.728a3.551,3.551,0,0,1,.052.492,3.729,3.729,0,1,1-3.729-3.729Z" transform="translate(-9.404 -10.168)" fill="#fbc000"/>
    <path id="Path_119" data-name="Path 119" d="M45.761,38.494v-.641a8.248,8.248,0,1,0,3.789,3.8h-.626l-.694.694a6.623,6.623,0,0,1,.656,2.856,6.712,6.712,0,1,1-3.811-6.041Z" transform="translate(-8.358 -9.154)" fill="#fbc000"/>
    <path id="Path_120" data-name="Path 120" d="M30,44.189A11.187,11.187,0,1,0,51.628,40.1a2.237,2.237,0,0,1-1.395.522,9.6,9.6,0,0,1,.649,3.565,9.7,9.7,0,1,1-6.108-9,2.237,2.237,0,0,1,.53-1.395A11.187,11.187,0,0,0,30,44.189Z" transform="translate(-7.372 -8.136)" fill="#fbc000"/>
    <path id="Path_121" data-name="Path 121" d="M19,14H34.662v1.492H19Z" transform="translate(-4.576 -3.305)" fill="#024282"/>
    <path id="Path_122" data-name="Path 122" d="M19,28H34.662v1.492H19Z" transform="translate(-4.576 -6.864)" fill="#024282"/>
    <path id="Path_123" data-name="Path 123" d="M19,42h5.966v1.492H19Z" transform="translate(-4.576 -10.422)" fill="#024282"/>
    <path id="Path_124" data-name="Path 124" d="M10.983,11a2.983,2.983,0,1,0,2.983,2.983A2.983,2.983,0,0,0,10.983,11Zm0,4.475a1.492,1.492,0,1,1,1.492-1.492A1.492,1.492,0,0,1,10.983,15.475Z" transform="translate(-1.779 -2.542)" fill="#024282"/>
    <path id="Path_125" data-name="Path 125" d="M10.983,25a2.983,2.983,0,1,0,2.983,2.983A2.983,2.983,0,0,0,10.983,25Zm0,4.475a1.492,1.492,0,1,1,1.492-1.492A1.492,1.492,0,0,1,10.983,29.475Z" transform="translate(-1.779 -6.101)" fill="#024282"/>
    <path id="Path_126" data-name="Path 126" d="M10.983,39a2.983,2.983,0,1,0,2.983,2.983A2.983,2.983,0,0,0,10.983,39Zm0,4.475a1.492,1.492,0,1,1,1.492-1.492A1.492,1.492,0,0,1,10.983,43.475Z" transform="translate(-1.779 -9.66)" fill="#024282"/>
  </g>
</svg>
