<svg xmlns="http://www.w3.org/2000/svg" width="42.318" height="42.318" viewBox="0 0 42.318 42.318">
  <g id="misja_3" transform="translate(0.001 0)">
    <g id="Group_528" data-name="Group 528" transform="translate(-0.001 0)">
      <path id="Path_160" data-name="Path 160" d="M102.573,107.734a.827.827,0,0,0,1.169,0l3.989-3.989a.826.826,0,0,0,0-1.169l-1.151-1.151a12.468,12.468,0,0,0,.938-2.263h1.627a.827.827,0,0,0,.827-.827V92.694a.827.827,0,0,0-.827-.827h-1.627a12.467,12.467,0,0,0-.938-2.264l1.151-1.151a.827.827,0,0,0,0-1.169L103.742,83.3a.827.827,0,0,0-1.169,0l-1.151,1.151a12.458,12.458,0,0,0-2.264-.938V81.882a.827.827,0,0,0-.827-.827H92.691a.826.826,0,0,0-.827.827v1.627a12.46,12.46,0,0,0-2.264.938L88.45,83.3a.826.826,0,0,0-1.169,0l-3.989,3.989a.826.826,0,0,0,0,1.169L84.444,89.6a12.461,12.461,0,0,0-.938,2.264H81.879a.826.826,0,0,0-.827.827v5.641a.826.826,0,0,0,.827.827h1.627a12.456,12.456,0,0,0,.938,2.263l-1.151,1.151a.826.826,0,0,0,0,1.169l3.989,3.989a.826.826,0,0,0,1.169,0l1.151-1.151a12.451,12.451,0,0,0,2.264.938v1.627a.826.826,0,0,0,.827.827h5.641a.827.827,0,0,0,.827-.827V107.52a12.463,12.463,0,0,0,2.264-.938Zm-4.439-1.645a.827.827,0,0,0-.628.8v1.431H93.518v-1.431a.827.827,0,0,0-.628-.8,10.816,10.816,0,0,1-3-1.243.827.827,0,0,0-1.012.123l-1.012,1.012-2.82-2.82,1.012-1.012a.827.827,0,0,0,.123-1.012,10.815,10.815,0,0,1-1.243-3,.827.827,0,0,0-.8-.628H82.705V93.521h1.431a.827.827,0,0,0,.8-.628,10.815,10.815,0,0,1,1.243-3,.827.827,0,0,0-.123-1.012l-1.012-1.012,2.82-2.82,1.012,1.012a.826.826,0,0,0,1.012.123,10.817,10.817,0,0,1,3-1.243.827.827,0,0,0,.628-.8V82.707h3.988v1.431a.827.827,0,0,0,.628.8,10.814,10.814,0,0,1,3,1.243.827.827,0,0,0,1.012-.123l1.012-1.012,2.82,2.82-1.012,1.012a.827.827,0,0,0-.123,1.012,10.818,10.818,0,0,1,1.243,3,.827.827,0,0,0,.8.628h1.431v3.988h-1.431a.827.827,0,0,0-.8.628,10.818,10.818,0,0,1-1.243,3,.827.827,0,0,0,.123,1.012l1.012,1.012-2.82,2.82-1.012-1.012a.827.827,0,0,0-1.012-.123A10.808,10.808,0,0,1,98.134,106.088Z" transform="translate(-74.353 -74.356)" fill="#024282"/>
      <path id="Path_161" data-name="Path 161" d="M184.593,170.406V163.2a.826.826,0,0,0-.413-.716l-6.244-3.605a.827.827,0,0,0-.827,0l-6.244,3.605a.826.826,0,0,0-.413.716v7.21a.826.826,0,0,0,.413.716l6.244,3.605a.826.826,0,0,0,.827,0l6.244-3.605A.826.826,0,0,0,184.593,170.406Zm-7.071-9.861,4.591,2.651-4.591,2.651-4.591-2.651Zm-5.418,4.082,4.591,2.651v5.3l-4.591-2.651Zm6.244,7.953v-5.3l4.591-2.651v5.3Z" transform="translate(-156.363 -145.642)" fill="#fbc000"/>
      <path id="Path_162" data-name="Path 162" d="M246.829,3.184a19.337,19.337,0,0,1,9.4,2.438.827.827,0,0,0,.805-1.444,20.993,20.993,0,0,0-10.207-2.647.827.827,0,0,0,0,1.653Z" transform="translate(-225.67 -1.404)" fill="#fbc000"/>
      <path id="Path_163" data-name="Path 163" d="M439.438,94.964a.826.826,0,0,0-1,.572,21.217,21.217,0,0,0-3.4-5.72.826.826,0,1,0-1.27,1.059,19.565,19.565,0,0,1,3.3,5.687l-.446-.293a.827.827,0,0,0-.907,1.382L438.08,99.2a.826.826,0,0,0,1.254-.487l.7-2.749a.826.826,0,0,0-.6-1Z" transform="translate(-397.743 -82.12)" fill="#fbc000"/>
      <path id="Path_164" data-name="Path 164" d="M21.158,319.1A19.131,19.131,0,0,1,9.119,314.89,19.587,19.587,0,0,1,3,306.437l.445.292a.827.827,0,0,0,.907-1.382L1.98,303.793a.827.827,0,0,0-1.254.487l-.7,2.749a.826.826,0,0,0,1.594.433,21.251,21.251,0,0,0,6.47,8.721,20.767,20.767,0,0,0,13.069,4.568.827.827,0,1,0,0-1.653Z" transform="translate(0.001 -278.56)" fill="#fbc000"/>
      <path id="Path_165" data-name="Path 165" d="M319.924,246a.827.827,0,0,0-.827.827,19.131,19.131,0,0,1-4.208,12.039,19.586,19.586,0,0,1-8.454,6.124l.292-.445a.827.827,0,1,0-1.382-.907l-1.554,2.368a.826.826,0,0,0,.487,1.254l2.749.7a.826.826,0,0,0,.433-1.594,21.251,21.251,0,0,0,8.722-6.47,20.768,20.768,0,0,0,4.568-13.069A.827.827,0,0,0,319.924,246Z" transform="translate(-278.56 -225.67)" fill="#fbc000"/>
      <path id="Path_166" data-name="Path 166" d="M2.357,21.986a.826.826,0,0,0,.827-.827A19.131,19.131,0,0,1,7.392,9.12,19.586,19.586,0,0,1,15.845,3l-.292.445a.827.827,0,1,0,1.382.907l1.554-2.368A.826.826,0,0,0,18,.726l-2.749-.7A.826.826,0,0,0,14.82,1.62,21.25,21.25,0,0,0,6.1,8.09,20.768,20.768,0,0,0,1.531,21.159a.826.826,0,0,0,.827.827Z" transform="translate(-1.404 0)" fill="#fbc000"/>
      <circle id="Ellipse_32" data-name="Ellipse 32" cx="0.827" cy="0.827" r="0.827" transform="translate(33.209 4.766)" fill="#fbc000"/>
    </g>
  </g>
</svg>
