<svg xmlns="http://www.w3.org/2000/svg" width="37.264" height="46.168" viewBox="0 0 37.264 46.168">
  <g id="misja_2" transform="translate(-8.75 -2)">
    <path id="Path_127" data-name="Path 127" d="M36.822,70.127h-3.5a1.878,1.878,0,0,1-1.775-1.262l-.5-1.477a.66.66,0,1,1,1.249-.422l.5,1.473a.557.557,0,0,0,.528.37h3.5a.547.547,0,0,0,.522-.374l.5-1.471a.66.66,0,0,1,1.248.426l-.5,1.473A1.875,1.875,0,0,1,36.822,70.127Z" transform="translate(-7.576 -21.959)" fill="#024282"/>
    <path id="Path_128" data-name="Path 128" d="M36.207,63.411H30.036a4.759,4.759,0,0,1-4.754-4.753V54.167a.66.66,0,0,1,.66-.66H40.3a.66.66,0,0,1,.66.66v4.491A4.759,4.759,0,0,1,36.207,63.411ZM26.6,54.826v3.831a3.438,3.438,0,0,0,3.435,3.434h6.171a3.438,3.438,0,0,0,3.434-3.434V54.826Z" transform="translate(-5.628 -17.536)" fill="#024282"/>
    <path id="Path_129" data-name="Path 129" d="M36.64,39.3H22.327a.66.66,0,0,1-.642-.51,16.611,16.611,0,0,0-3.555-6.661A14.7,14.7,0,0,1,14.678,21.97,14.861,14.861,0,0,1,28.462,7.931a14.734,14.734,0,0,1,12.26,24.125,16.62,16.62,0,0,0-3.44,6.735.66.66,0,0,1-.642.507Zm-13.8-1.319H36.127a18.079,18.079,0,0,1,3.582-6.768,13.414,13.414,0,1,0-20.571.066A18.3,18.3,0,0,1,22.839,37.979Z" transform="translate(-2.013 -2.008)" fill="#024282"/>
    <path id="Path_130" data-name="Path 130" d="M25.938,57.693a.66.66,0,0,1-.066-1.316l14.358-1.444a.66.66,0,0,1,.132,1.313L26,57.69a.569.569,0,0,1-.066,0Z" transform="translate(-5.627 -18.02)" fill="#024282"/>
    <path id="Path_131" data-name="Path 131" d="M25.988,61.65a.66.66,0,0,1-.066-1.316l14.325-1.451A.66.66,0,1,1,40.38,60.2L26.055,61.647a.582.582,0,0,1-.067,0Z" transform="translate(-5.644 -19.365)" fill="#024282"/>
    <path id="Path_132" data-name="Path 132" d="M27.891,65.49a.66.66,0,0,1-.066-1.319L40.508,62.9a.66.66,0,0,1,.132,1.313L27.957,65.484A.571.571,0,0,1,27.891,65.49Z" transform="translate(-6.281 -20.732)" fill="#024282"/>
    <path id="Path_133" data-name="Path 133" d="M36.66,5.542a.66.66,0,0,1-.66-.66V2.66a.66.66,0,1,1,1.319,0V4.882A.66.66,0,0,1,36.66,5.542Z" transform="translate(-9.277 0)" fill="#fbc000"/>
    <path id="Path_134" data-name="Path 134" d="M24.146,8.894a.66.66,0,0,1-.572-.33L22.462,6.64a.66.66,0,0,1,1.143-.66l1.111,1.925a.66.66,0,0,1-.571.989Z" transform="translate(-4.638 -1.243)" fill="#fbc000"/>
    <path id="Path_135" data-name="Path 135" d="M14.983,18.055a.66.66,0,0,1-.33-.088L12.73,16.856a.66.66,0,0,1,.66-1.143l1.925,1.111a.66.66,0,0,1-.33,1.231Z" transform="translate(-1.242 -4.639)" fill="#fbc000"/>
    <path id="Path_136" data-name="Path 136" d="M11.632,30.569H9.41a.66.66,0,1,1,0-1.319h2.222a.66.66,0,1,1,0,1.319Z" transform="translate(0 -9.277)" fill="#fbc000"/>
    <path id="Path_137" data-name="Path 137" d="M13.06,43.621a.66.66,0,0,1-.33-1.231l1.925-1.111a.66.66,0,1,1,.66,1.142l-1.925,1.111A.654.654,0,0,1,13.06,43.621Z" transform="translate(-1.243 -13.343)" fill="#fbc000"/>
    <path id="Path_138" data-name="Path 138" d="M48.6,8.894a.66.66,0,0,1-.571-.989L49.14,5.981a.66.66,0,0,1,1.143.66L49.171,8.565A.66.66,0,0,1,48.6,8.894Z" transform="translate(-13.342 -1.243)" fill="#fbc000"/>
    <path id="Path_139" data-name="Path 139" d="M57.343,18.055a.66.66,0,0,1-.33-1.231l1.924-1.111a.66.66,0,1,1,.66,1.143l-1.925,1.111A.659.659,0,0,1,57.343,18.055Z" transform="translate(-16.319 -4.639)" fill="#fbc000"/>
    <path id="Path_140" data-name="Path 140" d="M62.763,30.569H60.541a.66.66,0,0,1,0-1.319h2.222a.66.66,0,1,1,0,1.319Z" transform="translate(-17.408 -9.277)" fill="#fbc000"/>
    <path id="Path_141" data-name="Path 141" d="M59.266,43.621a.654.654,0,0,1-.33-.088l-1.925-1.111a.66.66,0,1,1,.66-1.142L59.6,42.391a.66.66,0,0,1-.33,1.231Z" transform="translate(-16.319 -13.343)" fill="#fbc000"/>
    <path id="Path_142" data-name="Path 142" d="M32.891,36.348h0l-3.269-.02a.66.66,0,0,1-.652-.586l-.28-2.481a8.116,8.116,0,0,1-1.187-.5l-1.971,1.533a.66.66,0,0,1-.874-.057l-2.3-2.33a.66.66,0,0,1-.046-.875l1.557-1.952a8.041,8.041,0,0,1-.484-1.2L20.9,27.572a.66.66,0,0,1-.577-.66l.02-3.27a.66.66,0,0,1,.586-.651l2.481-.28a8.1,8.1,0,0,1,.5-1.187l-1.533-1.975a.66.66,0,0,1,.057-.873l2.33-2.3a.66.66,0,0,1,.875-.047l1.955,1.558a8.16,8.16,0,0,1,1.193-.485l.311-2.48a.66.66,0,0,1,.655-.577h0l3.269.02a.66.66,0,0,1,.652.586l.286,2.484a8.1,8.1,0,0,1,1.187.5L37.12,16.4a.66.66,0,0,1,.874.058l2.3,2.33a.66.66,0,0,1,.047.875L38.78,21.617a8.084,8.084,0,0,1,.484,1.193l2.481.311a.66.66,0,0,1,.577.66L42.3,27.05a.66.66,0,0,1-.586.652l-2.48.279a8.038,8.038,0,0,1-.5,1.187l1.533,1.971a.66.66,0,0,1-.057.875l-2.33,2.3a.66.66,0,0,1-.875.046L35.055,32.8a8.153,8.153,0,0,1-1.2.487l-.311,2.477a.66.66,0,0,1-.658.58Zm-2.68-1.336,2.1.013L32.6,32.7a.66.66,0,0,1,.491-.557,6.778,6.778,0,0,0,1.7-.693.66.66,0,0,1,.741.056l1.834,1.464,1.5-1.478-1.44-1.853a.66.66,0,0,1-.047-.741A6.779,6.779,0,0,0,38.09,27.2a.66.66,0,0,1,.563-.483l2.335-.264.013-2.1-2.331-.292a.66.66,0,0,1-.557-.491,6.783,6.783,0,0,0-.69-1.7.66.66,0,0,1,.055-.74L38.942,19.3l-1.479-1.5-1.855,1.442a.66.66,0,0,1-.741.046,6.768,6.768,0,0,0-1.69-.711.66.66,0,0,1-.483-.563L32.43,15.68l-2.1-.013L30.039,18a.66.66,0,0,1-.491.557,6.769,6.769,0,0,0-1.7.69.66.66,0,0,1-.74-.056l-1.836-1.464-1.5,1.478,1.44,1.855a.66.66,0,0,1,.046.741,6.789,6.789,0,0,0-.711,1.69.66.66,0,0,1-.563.484l-2.335.264-.013,2.1,2.331.292a.66.66,0,0,1,.557.491,6.785,6.785,0,0,0,.69,1.7.66.66,0,0,1-.056.741L23.7,31.395l1.478,1.5,1.856-1.442a.66.66,0,0,1,.741-.047,6.772,6.772,0,0,0,1.693.714.66.66,0,0,1,.483.563Zm1.11-4.185c-.132,0-.257,0-.384-.013a5.48,5.48,0,0,1,.384-10.946h.037a5.48,5.48,0,1,1-.037,10.959Zm-4.163-5.507a4.166,4.166,0,0,0,4.136,4.188h.027a4.16,4.16,0,1,0-4.162-4.188Z" transform="translate(-3.939 -4.203)" fill="#fbc000"/>
  </g>
</svg>
