<svg xmlns="http://www.w3.org/2000/svg" width="41.652" height="41.579" viewBox="0 0 41.652 41.579">
  <g id="programy-wykonczeniowe_s2_4" transform="translate(0 -0.45)">
    <path id="Path_167" data-name="Path 167" d="M219.107,296.41a1.006,1.006,0,0,1-1.717-.711.61.61,0,0,0-1.22,0,2.226,2.226,0,0,0,3.8,1.574.61.61,0,0,0-.863-.863Z" transform="translate(-198.585 -270.671)" fill="#024282"/>
    <path id="Path_168" data-name="Path 168" d="M28.616,30.357H26.972a2.174,2.174,0,0,0-2.082,1.56H22.335a5.034,5.034,0,0,1-3.083-1.068,5.282,5.282,0,0,0,4.2-2.444,7.309,7.309,0,0,0,.854-3.769.345.345,0,0,1,.227-.309l1.92-.7a1.636,1.636,0,0,0,.78-2.432l-2.708-3.961c-.714-1.047-.449-2.169-.294-3.326h.679A6.277,6.277,0,0,0,31.2,7.777a6.266,6.266,0,0,0-6.211-6.293H12.7A1.239,1.239,0,0,0,11.482.45H8.537A1.239,1.239,0,0,0,7.3,1.619,7.771,7.771,0,0,0,1.709,4.494c-1.867,2.5-2.2,6.556-1.021,12.4.092.464.175,1.032.263,1.634.422,2.877.923,7.542,4.44,8.254a31.194,31.194,0,0,1-1.5,7.723A3.492,3.492,0,0,0,.873,37.957v3.462a.61.61,0,0,0,.61.61H3.46a.61.61,0,0,0,0-1.22H2.094V37.957A2.269,2.269,0,0,1,4.361,35.69H15.726a2.279,2.279,0,0,1,2.042,1.283l1.848,3.836H6.32a.61.61,0,0,0,0,1.22H20.588a.61.61,0,0,0,.55-.875l-2.27-4.711a3.509,3.509,0,0,0-2.395-1.891l.458-2a2.164,2.164,0,0,1,.9-1.341,6.268,6.268,0,0,0,4.5,1.926h2.554a2.174,2.174,0,0,0,2.082,1.56h1.644a2.17,2.17,0,0,0,0-4.341Zm-5.1-12.431,2.706,3.957a.4.4,0,0,1-.191.6l-1.92.7a1.562,1.562,0,0,0-1.027,1.4,6.426,6.426,0,0,1-.574,3.017,4.054,4.054,0,0,1-3.5,2.038,3.338,3.338,0,0,0-.816.1l-5.255-6.82a2.118,2.118,0,0,0,1.591-2.049V14.383a2.111,2.111,0,0,0-.055-.477H23c-.19,1.417-.366,2.762.52,4.019ZM8.878,21.762V17.53a.145.145,0,0,1,.145-.145H11a.145.145,0,0,1,.145.145v4.232ZM11,16.164H9.023A1.367,1.367,0,0,0,7.658,17.53v4.232a.909.909,0,0,1-.95-.894V14.383a.9.9,0,0,1,.894-.894h4.815a.9.9,0,0,1,.894.894v6.484a.909.909,0,0,1-.95.894V17.53A1.366,1.366,0,0,0,11,16.164ZM9.369,9.079h1.28v3.189H9.369Zm-.85-7.391H11.5V3.628a.61.61,0,0,0,1.22,0V2.7H24.993a5.039,5.039,0,0,1,4.991,5.057,5.052,5.052,0,0,1-5.074,4.925H13.677a2.836,2.836,0,0,0-1.807-.418V9.079c.4.047.85-.144.85-.61V6.516a.61.61,0,0,0-1.22,0V7.859H8.519ZM2.159,18.349c-.091-.617-.176-1.2-.274-1.7-1.092-5.41-.822-9.255.8-11.43A6.447,6.447,0,0,1,7.3,2.85v5.62a.689.689,0,0,0,.85.61v3.189c-1.32,0-2.661.563-2.661,2.114v6.484A2.117,2.117,0,0,0,7.6,22.982h.064v.991A1.658,1.658,0,0,1,6.01,25.628c-3.113,0-3.534-5.121-3.851-7.279ZM16.9,30.382a3.353,3.353,0,0,0-1.164,1.9l-.5,2.186H5.166a30.849,30.849,0,0,0,1.446-7.686,2.881,2.881,0,0,0,2.273-2.812v-.991H11.45l5.61,7.282c-.053.038-.106.077-.156.119Zm11.712,3.1H26.972a.95.95,0,1,1,0-1.9h1.644a.95.95,0,1,1,0,1.9Z" transform="translate(0)" fill="#024282"/>
    <path id="Path_169" data-name="Path 169" d="M342.809,204.088h-7.3a2.185,2.185,0,0,0-2.182,2.182V208.3a.61.61,0,1,0,1.22,0V206.27a.963.963,0,0,1,.962-.962h7.3a.963.963,0,0,1,.962.962v6.463a.963.963,0,0,1-.962.962H331.731l2.575-2a.61.61,0,1,0-.747-.964l-2.964,2.3a1.061,1.061,0,0,0,.645,1.884h11.569a2.185,2.185,0,0,0,2.182-2.182V206.27A2.185,2.185,0,0,0,342.809,204.088Z" transform="translate(-303.339 -187.073)" fill="#fbc000"/>
    <path id="Path_170" data-name="Path 170" d="M408.246,249.441h4.179a.61.61,0,1,0,0-1.22h-4.179a.61.61,0,1,0,0,1.22Z" transform="translate(-374.476 -227.616)" fill="#fbc000"/>
    <path id="Path_171" data-name="Path 171" d="M408.246,283.216h4.179a.61.61,0,0,0,0-1.22h-4.179a.61.61,0,0,0,0,1.22Z" transform="translate(-374.476 -258.643)" fill="#fbc000"/>
  </g>
</svg>
