<svg xmlns="http://www.w3.org/2000/svg" width="42.351" height="42.336" viewBox="0 0 42.351 42.336">
  <g id="programy-wykonczeniowe_s5_2" transform="translate(0 -0.09)">
    <path id="Path_204" data-name="Path 204" d="M14.465,178.551l-2.077-8.375A1.426,1.426,0,0,0,11,169.091H3.5a1.425,1.425,0,0,0-1.386,1.084L.035,178.551a1.159,1.159,0,0,0,1.125,1.438H2.354v4.42a2.191,2.191,0,1,0,1.24,0v-4.42H6.63v13.247H2.643a1.2,1.2,0,0,0-1.2,1.2v1.8a1.2,1.2,0,0,0,1.2,1.2h9.214a1.2,1.2,0,0,0,1.2-1.2v-1.8a1.2,1.2,0,0,0-1.2-1.2H7.87V179.988h5.47a1.159,1.159,0,0,0,1.125-1.438ZM3.925,186.51a.951.951,0,1,1-.951-.951A.952.952,0,0,1,3.925,186.51Zm7.891,9.687H2.685v-1.722h9.131V196.2ZM1.264,178.748l2.052-8.274a.188.188,0,0,1,.182-.143H11a.188.188,0,0,1,.182.143l2.052,8.274H1.264Z" transform="translate(0 -155.022)" fill="#fbc000"/>
    <path id="Path_205" data-name="Path 205" d="M179.292,26.071h-6.841v-.6a5.616,5.616,0,0,0-1.573-3.909l-1.86-1.936h0l2.715-2.351a5.816,5.816,0,0,0,1.9-3.312l.879-4.688a1.074,1.074,0,0,0-1.458-1.194l-2.968,1.2a9.429,9.429,0,0,0-2.756,1.722,9,9,0,0,0-.829-7.025L164.571.628a1.074,1.074,0,0,0-1.882.039l-2.275,4.355a8.96,8.96,0,0,0-.716,1.842l-3.782-2.4a1.074,1.074,0,0,0-1.644,1.018l.655,6.29a12.664,12.664,0,0,0,1.123,4.053l1.71,3.662a1.8,1.8,0,0,0-.158.145l-1.86,1.936a5.616,5.616,0,0,0-1.574,3.909v.6h-.783a1.972,1.972,0,0,0-1.744,2.894,1.971,1.971,0,0,0-.6,3.138,1.97,1.97,0,0,0,.6,3.138,1.972,1.972,0,0,0,1.744,2.894h1.194a5.684,5.684,0,0,0,1.162,1.795l1.86,1.936a1.834,1.834,0,0,0,1.316.561H167.7a1.834,1.834,0,0,0,1.316-.561l1.86-1.936a5.667,5.667,0,0,0,1.5-3.027h6.911a1.117,1.117,0,0,0,1.116-1.116v-8.6A1.117,1.117,0,0,0,179.292,26.071ZM161.513,5.6l2.135-4.086L165.429,4.6a7.758,7.758,0,0,1,.7,6.1s-.885,2.951-.887,3l-.409.737-.635-2.784a5.577,5.577,0,0,0-2.462-3.489l-.934-.593A7.714,7.714,0,0,1,161.513,5.6Zm-5.352,6.044-.62-5.948,5.532,3.515a4.345,4.345,0,0,1,1.918,2.718l.942,4.133-.38.685a.62.62,0,0,0,1.084.6l1.83-3.3a8.208,8.208,0,0,1,4.086-3.614l2.686-1.086-.823,4.389a4.57,4.57,0,0,1-1.5,2.6l-3.153,2.73-8.834,0L157.174,15.3A11.426,11.426,0,0,1,156.16,11.639Zm-.752,13.834a4.381,4.381,0,0,1,1.228-3.05l1.86-1.936a.588.588,0,0,1,.422-.18H167.7a.588.588,0,0,1,.422.18l1.86,1.936a4.382,4.382,0,0,1,1.228,3.05v.6h-4.6l-.671-.784a4.28,4.28,0,0,0-1.744-1.221,3.012,3.012,0,0,1-1.037-.653l-1.37-1.319a2.163,2.163,0,1,0-3,3.117l.895.861h-4.271v-.6Zm14.575,13.6-1.86,1.936a.588.588,0,0,1-.422.18h-8.784a.588.588,0,0,1-.422-.18l-1.86-1.936a4.426,4.426,0,0,1-.685-.936h8.178a3.643,3.643,0,0,0,3.1-1.717.285.285,0,0,1,.239-.14h2.389a1.116,1.116,0,0,0,1,.625h.26a4.422,4.422,0,0,1-1.137,2.168Zm9.184-3.408h-8.184V33.755a.62.62,0,1,0-1.24,0v1.282h-2.274a1.518,1.518,0,0,0-1.289.721,2.41,2.41,0,0,1-2.052,1.136H153.386a.733.733,0,0,1,0-1.466h4.375a.62.62,0,1,0,0-1.24H152.48a.733.733,0,1,1,0-1.466h5.281a.62.62,0,1,0,0-1.24H152.48a.733.733,0,1,1,0-1.466h5.281a.62.62,0,1,0,0-1.24h-4.375a.733.733,0,0,1,0-1.466h9.31a.62.62,0,1,0,0-1.24h-1.228l-1.823-1.755c-.876-.816.432-2.173,1.279-1.329l1.37,1.319a4.242,4.242,0,0,0,1.461.921,3.036,3.036,0,0,1,1.238.866l.857,1a.665.665,0,0,0,.577.217h3.317v3.435a.62.62,0,1,0,1.24,0V27.311h8.184Z" transform="translate(-138.057 0)" fill="#024282"/>
  </g>
</svg>
