<svg xmlns="http://www.w3.org/2000/svg" width="41.579" height="41.579" viewBox="0 0 41.579 41.579">
  <g id="programy-wykonczeniowe_s2_2" transform="translate(0)">
    <g id="Group_533" data-name="Group 533" transform="translate(0)">
      <path id="Path_172" data-name="Path 172" d="M367.671,11.265a.609.609,0,0,0,.609-.609v-4.3a6.351,6.351,0,0,0-12.7,0V35.218s0,.006,0,.009a6.352,6.352,0,0,0,12.7,0h0V13.5a.609.609,0,0,0-1.218,0v18a6.343,6.343,0,0,0-10.266,0V6.351a5.133,5.133,0,0,1,10.266,0v4.3a.609.609,0,0,0,.609.609Zm-5.742,18.83a5.133,5.133,0,1,1-5.133,5.133A5.139,5.139,0,0,1,361.929,30.094Z" transform="translate(-326.701 0)" fill="#024282"/>
      <path id="Path_173" data-name="Path 173" d="M400.01,244.909a1.147,1.147,0,0,0-.932-.785l-.861-.125-.482-.977a1.046,1.046,0,0,0-1.875,0l-.482.977-.861.125a1.154,1.154,0,0,0-.64,1.969l.623.607-.147.857a1.154,1.154,0,0,0,1.675,1.217l.77-.4.77.4a1.154,1.154,0,0,0,1.675-1.217l-.147-.857.623-.607A1.147,1.147,0,0,0,400.01,244.909Zm-1.789.941a1.154,1.154,0,0,0-.332,1.022l.131.763-.685-.36a1.154,1.154,0,0,0-1.074,0l-.685.36.131-.763a1.154,1.154,0,0,0-.332-1.022l-.554-.54.766-.111a1.154,1.154,0,0,0,.869-.631l.342-.694.342.694a1.153,1.153,0,0,0,.869.631l.766.111Z" transform="translate(-361.57 -222.751)" fill="#fbc000"/>
      <path id="Path_174" data-name="Path 174" d="M400.01,147.934a1.147,1.147,0,0,0-.932-.785l-.861-.125-.482-.977a1.046,1.046,0,0,0-1.875,0l-.482.977-.861.125a1.154,1.154,0,0,0-.64,1.969l.623.607-.147.857a1.154,1.154,0,0,0,1.675,1.217l.77-.4.77.4a1.154,1.154,0,0,0,1.675-1.217l-.147-.857.623-.607A1.147,1.147,0,0,0,400.01,147.934Zm-1.789.941a1.154,1.154,0,0,0-.332,1.022l.131.763-.685-.36a1.153,1.153,0,0,0-1.074,0l-.685.36.131-.763a1.154,1.154,0,0,0-.332-1.022l-.554-.54.766-.111a1.154,1.154,0,0,0,.869-.631l.342-.694.342.694a1.154,1.154,0,0,0,.869.631l.766.111Z" transform="translate(-361.57 -133.651)" fill="#fbc000"/>
      <path id="Path_175" data-name="Path 175" d="M400.01,50.959a1.147,1.147,0,0,0-.932-.786l-.861-.125-.482-.977a1.046,1.046,0,0,0-1.875,0l-.482.977-.861.125a1.154,1.154,0,0,0-.64,1.969l.623.607-.147.857a1.154,1.154,0,0,0,1.675,1.217l.77-.4.77.4a1.154,1.154,0,0,0,1.675-1.217l-.147-.857.623-.607a1.147,1.147,0,0,0,.292-1.183Zm-1.789.941a1.154,1.154,0,0,0-.332,1.022l.131.763-.685-.36a1.154,1.154,0,0,0-1.074,0l-.685.36.131-.763a1.154,1.154,0,0,0-.332-1.021l-.554-.54.765-.111a1.154,1.154,0,0,0,.869-.631l.342-.694.342.694a1.153,1.153,0,0,0,.869.631l.766.111Z" transform="translate(-361.57 -44.55)" fill="#fbc000"/>
      <path id="Path_176" data-name="Path 176" d="M385.525,400.833l1.194,1.194a1.922,1.922,0,0,0,2.718,0l2.4-2.4a1.922,1.922,0,1,0-2.718-2.718l-1.053,1.053a1.922,1.922,0,0,0-2.543,2.872Zm.861-1.856a.7.7,0,0,1,.995,0l.266.266a.609.609,0,0,0,.861,0l1.474-1.474a.7.7,0,0,1,.995.995l-2.4,2.4a.7.7,0,0,1-.995,0l-1.194-1.194A.7.7,0,0,1,386.387,398.977Z" transform="translate(-353.701 -364.158)" fill="#fbc000"/>
      <path id="Path_177" data-name="Path 177" d="M18.425,26.039l-.975-.283V24.113A6.938,6.938,0,0,0,20.92,18.44h.22a3.069,3.069,0,0,0,1.686-5.634V8.831a8.777,8.777,0,0,0-.7-3.444.609.609,0,0,0-1.122.475,7.566,7.566,0,0,1,.6,2.969v3.5a3.079,3.079,0,0,0-.468-.036h-.551l-2.4-2.632A.932.932,0,0,0,17.1,9.452l-5.12,2.422v-.3a.773.773,0,0,0-1.065-.716L7.372,12.3H6.851a3.082,3.082,0,0,0-.468.036v-3.5A7.612,7.612,0,0,1,19.378,3.448c.069.069.136.139.2.209a.609.609,0,0,0,.9-.823c-.076-.083-.156-.166-.237-.248A8.83,8.83,0,0,0,5.165,8.831v3.975A3.069,3.069,0,0,0,6.851,18.44h.22a6.938,6.938,0,0,0,3.47,5.673v1.644l-.975.283a13.2,13.2,0,0,0-6.58,4.351.609.609,0,1,0,.944.77A11.988,11.988,0,0,1,7.8,28.037a6.507,6.507,0,0,0,2.557,3.506,1.73,1.73,0,0,0,1.525.214l.552,1.093-1.547,7.512H1.873a.656.656,0,0,1-.655-.655v-.934a12.092,12.092,0,0,1,1.247-5.338.609.609,0,0,0-1.092-.541A13.317,13.317,0,0,0,0,38.772v.934a1.876,1.876,0,0,0,1.873,1.873H26.116a1.876,1.876,0,0,0,1.873-1.873v-.934a13.257,13.257,0,0,0-9.564-12.732Zm.636,1.5a5.281,5.281,0,0,1-2.121,3,.52.52,0,0,1-.661-.06l-1.046-1.046A3.468,3.468,0,0,0,17.357,27l.729.211Q18.583,27.354,19.061,27.538Zm-5.608,4.617-.571-1.129,1.112-1.112,1.113,1.113-.57,1.128H13.453ZM22.991,15.37a1.854,1.854,0,0,1-1.852,1.852h-.211v-3.7h.211A1.854,1.854,0,0,1,22.991,15.37ZM5,15.37a1.854,1.854,0,0,1,1.852-1.852h.211v3.7H6.851A1.854,1.854,0,0,1,5,15.37ZM8.28,18.106v-4.86l2.481-1.01v.083a.937.937,0,0,0,1.338.847l5.333-2.523,2.278,2.5v4.961a5.715,5.715,0,1,1-11.43,0Zm5.715,6.933a6.9,6.9,0,0,0,2.237-.372v1.54a2.237,2.237,0,1,1-4.474,0v-1.54a6.9,6.9,0,0,0,2.237.372Zm-2.946,5.5a5.281,5.281,0,0,1-2.12-3c.319-.123.644-.234.975-.33L10.633,27a3.468,3.468,0,0,0,2.123,2.432L11.71,30.476A.52.52,0,0,1,11.049,30.536Zm2.526,2.837h.841l1.439,6.988H12.136Zm13.2,6.332a.656.656,0,0,1-.655.655H17.1l-1.547-7.512.552-1.092a1.73,1.73,0,0,0,1.524-.215,6.507,6.507,0,0,0,2.557-3.505,12.043,12.043,0,0,1,6.586,10.735Z" transform="translate(0)" fill="#024282"/>
    </g>
  </g>
</svg>
