<svg xmlns="http://www.w3.org/2000/svg" width="36.214" height="41.579" viewBox="0 0 36.214 41.579">
  <g id="programy-wykonczeniowe_s2_3" transform="translate(-0.004 -0.001)">
    <path id="Path_178" data-name="Path 178" d="M99.522,44.926a3.351,3.351,0,0,0-2.177,3.129,3.313,3.313,0,0,0,.384,1.526,2.671,2.671,0,0,0,0,5,3.313,3.313,0,0,0-.384,1.526,3.35,3.35,0,0,0,2.177,3.129,2.646,2.646,0,0,0-.165.895,2.664,2.664,0,0,0,3.628,2.5,2.676,2.676,0,0,0,5.09-1.161V42.69a2.676,2.676,0,0,0-5.09-1.161,2.658,2.658,0,0,0-3.463,3.4Zm2.517-2.236a1.343,1.343,0,0,1,1.341,1.341h1.341a2.657,2.657,0,0,0-.618-1.692,1.338,1.338,0,0,1,2.63.351V61.468a1.338,1.338,0,0,1-2.63.351,2.656,2.656,0,0,0,.618-1.692h-1.341a1.341,1.341,0,1,1-1.341-1.341V57.444a2.657,2.657,0,0,0-1.71.633A2.01,2.01,0,1,1,102.71,56.1h1.341A3.357,3.357,0,0,0,100.7,52.75a3.318,3.318,0,0,0-2.012.688V53.42a1.341,1.341,0,0,1,0-2.682V50.72a3.317,3.317,0,0,0,2.012.688,3.357,3.357,0,0,0,3.353-3.353H102.71a2.012,2.012,0,1,1-2.381-1.974,2.657,2.657,0,0,0,1.71.633V45.373a1.341,1.341,0,0,1,0-2.682Zm0,0" transform="translate(-87.953 -36.653)" fill="#fbc000"/>
    <path id="Path_179" data-name="Path 179" d="M262.04,41.349a2.668,2.668,0,0,0-.945.18A2.676,2.676,0,0,0,256,42.69V61.468a2.676,2.676,0,0,0,5.09,1.161,2.664,2.664,0,0,0,3.628-2.5,2.637,2.637,0,0,0-.165-.895,3.35,3.35,0,0,0,2.177-3.129,3.313,3.313,0,0,0-.384-1.526,2.671,2.671,0,0,0,0-5,3.313,3.313,0,0,0,.384-1.526,3.351,3.351,0,0,0-2.177-3.129,2.636,2.636,0,0,0,.165-.895,2.685,2.685,0,0,0-2.682-2.682Zm3.353,6.706a2.012,2.012,0,1,1-4.024,0h-1.341a3.357,3.357,0,0,0,3.353,3.353,3.317,3.317,0,0,0,2.012-.688v.017a1.341,1.341,0,1,1,0,2.682v.018a3.317,3.317,0,0,0-2.012-.688,3.357,3.357,0,0,0-3.353,3.353h1.341a2.012,2.012,0,1,1,2.381,1.975,2.659,2.659,0,0,0-1.71-.633v1.341a1.341,1.341,0,1,1-1.341,1.341h-1.341a2.656,2.656,0,0,0,.618,1.692,1.338,1.338,0,0,1-2.63-.351V42.69a1.338,1.338,0,0,1,2.63-.351,2.657,2.657,0,0,0-.618,1.692H260.7a1.341,1.341,0,1,1,1.341,1.341v1.341a2.658,2.658,0,0,0,1.71-.633,2.012,2.012,0,0,1,1.643,1.974Zm0,0" transform="translate(-234.54 -36.653)" fill="#fbc000"/>
    <path id="Path_180" data-name="Path 180" d="M89.993,4.184A15.3,15.3,0,0,0,78.448.033l.083,1.338a14.082,14.082,0,0,1,8.674,25.8,8.291,8.291,0,0,0-3.03,3.683H74.663a8.427,8.427,0,0,0-3.045-3.711,14.02,14.02,0,0,1-6.261-12.163l-1.341-.042a15.352,15.352,0,0,0,6.857,13.319,7.066,7.066,0,0,1,2.32,2.6H71.385v1.341h2.343a7.739,7.739,0,0,1,.287,1.341H72.726v1.341h1.341v2.012a.67.67,0,0,0,.671.671h.671a4.024,4.024,0,0,0,8.047,0h.671a.67.67,0,0,0,.671-.671V34.874h1.341V33.533H84.845a7.475,7.475,0,0,1,.269-1.341H87.48V30.85H85.643a6.915,6.915,0,0,1,2.3-2.564,15.422,15.422,0,0,0,2.047-24.1ZM79.433,40.239a2.685,2.685,0,0,1-2.682-2.682h5.365A2.685,2.685,0,0,1,79.433,40.239Zm4.024-4.024H75.409V34.874h8.047Zm.048-2.682H75.355a9.132,9.132,0,0,0-.227-1.341h8.585a8.91,8.91,0,0,0-.209,1.341Zm0,0" transform="translate(-58.64 0)" fill="#024282"/>
    <path id="Path_181" data-name="Path 181" d="M48.675,4.7a2.685,2.685,0,0,1,2.682,2.682.671.671,0,1,0,1.341,0A2.685,2.685,0,0,1,55.381,4.7a.671.671,0,1,0,0-1.341A2.685,2.685,0,0,1,52.7.678a.671.671,0,1,0-1.341,0,2.685,2.685,0,0,1-2.682,2.682.671.671,0,1,0,0,1.341Zm3.353-1.8a4.059,4.059,0,0,0,1.131,1.131,4.063,4.063,0,0,0-1.131,1.131A4.059,4.059,0,0,0,50.9,4.032,4.054,4.054,0,0,0,52.028,2.9Zm0,0" transform="translate(-43.976 -0.006)" fill="#fbc000"/>
    <path id="Path_182" data-name="Path 182" d="M7.381,84.7a.671.671,0,1,0,0-1.341A2.685,2.685,0,0,1,4.7,80.679a.671.671,0,1,0-1.341,0A2.685,2.685,0,0,1,.675,83.361a.671.671,0,1,0,0,1.341,2.685,2.685,0,0,1,2.682,2.682.671.671,0,1,0,1.341,0A2.685,2.685,0,0,1,7.381,84.7Zm-3.353.461A4.059,4.059,0,0,0,2.9,84.032,4.063,4.063,0,0,0,4.028,82.9a4.067,4.067,0,0,0,1.131,1.131A4.063,4.063,0,0,0,4.028,85.163Zm0,0" transform="translate(0 -73.3)" fill="#fbc000"/>
  </g>
</svg>
