<svg id="programy-wykonczeniowe_s5_5" xmlns="http://www.w3.org/2000/svg" xmlns:xlink="http://www.w3.org/1999/xlink" width="39.349" height="39.343" viewBox="0 0 39.349 39.343">
  <defs>
    <clipPath id="clip-path">
      <rect id="Rectangle_506" data-name="Rectangle 506" width="39.349" height="39.343" fill="none"/>
    </clipPath>
  </defs>
  <g id="Group_536" data-name="Group 536" clip-path="url(#clip-path)">
    <path id="Path_218" data-name="Path 218" d="M18.337,71.406H16.5V66.33h.888q.033-.635.065-1.27l.288-6.347h.028a1.271,1.271,0,0,0,1.27-1.27V56.176a1.271,1.271,0,0,0-1.27-1.27H12.34a2.534,2.534,0,0,0-1.6-1.2,2.361,2.361,0,0,0-1.272.039,2.534,2.534,0,0,0-1.5,1.157h-.5L4.074,42.473A2.074,2.074,0,0,0,0,43.021V43.3a2.074,2.074,0,0,0,.068.528L2.984,54.908H2.538a1.27,1.27,0,0,0-1.27,1.27v1.268a1.271,1.271,0,0,0,1.27,1.269h.028l.548,12.144A1.9,1.9,0,0,0,5.02,72.676H18.337ZM12.692,56.176h5.077v1.27H12.34a2.51,2.51,0,0,0,.352-1.27m-2.538-1.269h0a1.27,1.27,0,1,1-1.27,1.27,1.27,1.27,0,0,1,1.27-1.27M1.3,43.5a.778.778,0,0,1-.027-.2v-.278A.8.8,0,0,1,2.854,42.8l3.3,12.1H4.3ZM2.538,57.446v-1.27H7.615a2.513,2.513,0,0,0,.353,1.27Zm1.3,1.269H9.451a13.691,13.691,0,0,1-5.193,9.267ZM16.18,65.1a1.269,1.269,0,0,0-.949,1.223V71.4l-10.21,0a.634.634,0,0,1-.634-.605l-.059-1.3a14.964,14.964,0,0,0,6.4-10.791H16.47Z" transform="translate(0 -33.35)" fill="#fbc000"/>
    <path id="Path_219" data-name="Path 219" d="M70.9,1.267H64.973A1.9,1.9,0,0,0,63.1,2.826l-.854,4.638a4.787,4.787,0,0,0-2.26-1.63,4.982,4.982,0,0,0-3.243-3.195l-.576-1.153a2.689,2.689,0,0,0-4.746-.119A4.983,4.983,0,0,0,48.164,4.6,4.272,4.272,0,0,0,45.679,7.5l-.059.24a4.793,4.793,0,0,0-3.147,3.578l-.02.1h-.113a1.27,1.27,0,0,0-1.269,1.27v1.273a1.27,1.27,0,0,0,1.269,1.27h.06l.515,5.155a2.866,2.866,0,0,1,.706-.093,3.029,3.029,0,0,1,.567.055l-.51-5.121H60.815L58.946,25.381H55.032a1.271,1.271,0,0,0-1.27,1.269v5.077H50.907a.383.383,0,0,1-.058,0l-.017,0c-.222,0-.453,0-.692.008q-.2.008-.4.02c-.029,0-.06.006-.092.011l-.076.014a1.3,1.3,0,0,0-.886,1.215V38.07h-.006v1.272H68.992a1.27,1.27,0,0,0,1.27-1.27V33a1.27,1.27,0,0,0-1.27-1.269H65.185V26.65a1.27,1.27,0,0,0-1.27-1.27H62.777l3.57-19.037H70.9a1.906,1.906,0,0,0,1.9-1.9V3.17a1.906,1.906,0,0,0-1.9-1.9m-24.6,7.6.37-.091.24-.961a3.007,3.007,0,0,1,1.975-2.133l.33-.11.084-.339A3.72,3.72,0,0,1,52.01,2.518l.283-.07.2-.4a1.419,1.419,0,0,1,2.538,0l.832,1.664.283.07A3.72,3.72,0,0,1,58.856,6.5l.091.369.37.091a3.517,3.517,0,0,1,2.546,2.569l-.349,1.892H43.76A3.511,3.511,0,0,1,46.3,8.863m-3.961,5.1V12.689H61.283l-.234,1.273Zm16.5,24.111H49.955V33h8.885ZM68.992,33v5.077H60.108V33ZM63.917,26.65l0,5.077H55.032V26.65Zm-2.432-1.269h-1.25L63.742,6.343h1.313ZM71.531,4.439a.639.639,0,0,1-.639.639H63.977l.372-2.019a.639.639,0,0,1,.623-.519H70.9a.639.639,0,0,1,.639.639Z" transform="translate(-33.452 0)" fill="#024282"/>
    <path id="Path_220" data-name="Path 220" d="M95.81,23.05h1.269a1.271,1.271,0,0,1,1.27-1.27V20.512A2.541,2.541,0,0,0,95.81,23.05" transform="translate(-78.038 -16.707)" fill="#024282"/>
    <path id="Path_221" data-name="Path 221" d="M75.285,43.575h1.27a1.271,1.271,0,0,1,1.27-1.27V41.037a2.541,2.541,0,0,0-2.539,2.538" transform="translate(-61.32 -33.425)" fill="#024282"/>
    <path id="Path_222" data-name="Path 222" d="M123.179,41.037v1.27a1.271,1.271,0,0,1,1.27,1.27h1.27a2.541,2.541,0,0,0-2.539-2.539" transform="translate(-100.331 -33.425)" fill="#024282"/>
  </g>
</svg>
