<svg xmlns="http://www.w3.org/2000/svg" width="42.336" height="42.336" viewBox="0 0 42.336 42.336">
  <g id="programy-wykonczeniowe_s5_1" transform="translate(-16 -16)">
    <path id="Path_191" data-name="Path 191" d="M57.63,16H16.706a.706.706,0,0,0-.706.706V57.63a.706.706,0,0,0,.706.706H57.63a.706.706,0,0,0,.706-.706V16.706A.706.706,0,0,0,57.63,16ZM28.885,23.056h.706l1.058,1.411H27.827ZM22,26.584H22.7L23.762,28H20.939ZM20.487,50.515a4.93,4.93,0,0,1-.253-1.562v-.425a4.9,4.9,0,0,1,.625.786A6.786,6.786,0,0,0,20.8,51.28h-.059Zm5.391-1.562a4.93,4.93,0,0,1-.253,1.562l-.255.765h-.059a6.786,6.786,0,0,0-.058-1.966,4.9,4.9,0,0,1,.625-.786Zm-2.07.339a.708.708,0,0,0,.02.09,5.381,5.381,0,0,1,.06,1.9H22.224a5.377,5.377,0,0,1,.832-3.746A5.392,5.392,0,0,1,23.808,49.292Zm-2.977,7.633-.348-2.088a4.118,4.118,0,0,1,.21-2.146h4.725a4.118,4.118,0,0,1,.21,2.146l-.348,2.088Zm22.687,0V52.691H44.93v4.234ZM41.4,51.28a.706.706,0,0,1,0-1.411h5.645a.706.706,0,0,1,0,1.411Zm9.173,5.645V55.514H53.4v1.411Zm6.35,0H54.808V55.337A1.236,1.236,0,0,0,53.573,54.1h-.882v-6.35h2.117a.706.706,0,0,0,.7-.805L54.8,42.007a.706.706,0,0,0-.7-.606H49.869a.706.706,0,0,0-.7.606l-.706,4.939a.706.706,0,0,0,.7.805H51.28V54.1H50.4a1.236,1.236,0,0,0-1.235,1.235v1.588H46.341V52.691h.706a2.117,2.117,0,0,0,0-4.234H41.4a2.117,2.117,0,0,0,0,4.234h.706v4.234h-15.4l.309-1.856a5.518,5.518,0,0,0-.384-3.126l.327-.983a6.338,6.338,0,0,0,.326-2.008V47.046a.706.706,0,0,0-1.129-.564l-.564.423a6.354,6.354,0,0,0-.853.772,6.862,6.862,0,0,0-.751-1.264l-.371-.495a.706.706,0,0,0-1.129,0l-.371.495a6.857,6.857,0,0,0-.751,1.264,6.341,6.341,0,0,0-.853-.772l-.564-.423a.706.706,0,0,0-1.129.564v1.906a6.339,6.339,0,0,0,.327,2.009l.327.982a5.518,5.518,0,0,0-.385,3.126l.309,1.856H17.411V17.411H21.7v7.762h-.051a.706.706,0,0,0-.564.282l-2.117,2.822a.706.706,0,0,0,.564,1.129h5.645a.706.706,0,0,0,.564-1.129L23.62,25.455a.7.7,0,0,0-.513-.279V17.411h5.476v4.234h-.051a.706.706,0,0,0-.564.282l-2.117,2.822a.706.706,0,0,0,.564,1.129H32.06a.706.706,0,0,0,.564-1.129l-2.117-2.822a.7.7,0,0,0-.513-.279V17.411h26.93ZM49.977,46.341l.5-3.528h3.01l.5,3.528Z" fill="#024282"/>
    <path id="Path_192" data-name="Path 192" d="M131.528,106.055v.768A2.469,2.469,0,0,0,128,109.054v3.352a1.943,1.943,0,0,0,1.94,1.94h.684l-.486,1.946a.706.706,0,0,0,.685.877h2.117a.706.706,0,0,0,.631-.39l1.216-2.432h7.6l1.216,2.432a.706.706,0,0,0,.631.39h2.117a.706.706,0,0,0,.685-.877l-.487-1.946a1.942,1.942,0,0,0,1.919-1.94v-3.352a2.481,2.481,0,0,0-.046-.469,2.2,2.2,0,0,0,1.058-.762l1.473-1.964a3.334,3.334,0,0,0,2.413-1.468l.59-.884,3.479-3.479a.706.706,0,0,0-.108-1.086l-4.234-2.822a.706.706,0,0,0-.89.088l-3.321,3.321h-5.352a.706.706,0,0,0-.587.314l-2.822,4.234a.7.7,0,0,0-.119.391h-6.88A1.589,1.589,0,0,0,131.528,106.055Zm1.588-.176h10.231a.176.176,0,0,1,.176.176v2.72a1.932,1.932,0,0,0-.529-.074h-9.526a1.93,1.93,0,0,0-.529.074v-2.72A.176.176,0,0,1,133.116,105.879Zm12.776-.59a2.191,2.191,0,0,0-.365,1.341,2.449,2.449,0,0,0-.592.194v-.768a1.577,1.577,0,0,0-.185-.743l.563-.845h1.126Zm-12.952,7.646v-2.293a.53.53,0,0,1,.529-.529h9.526a.53.53,0,0,1,.529.529v2.293Zm-3.528-.529v-3.352a1.058,1.058,0,0,1,2.117,0v3.881H129.94A.53.53,0,0,1,129.411,112.405Zm3.092,3.352h-.777l.353-1.411h1.13Zm12.162,0-.706-1.411h1.13l.353,1.411Zm2.386-3.352a.53.53,0,0,1-.529.529h-1.588v-3.881A1.053,1.053,0,0,1,146.113,108a2.188,2.188,0,0,0,.811.549,1.053,1.053,0,0,1,.127.5Zm-3.15-11.466h5.267a.706.706,0,0,0,.5-.207l3.119-3.119,3.036,2.024-2.919,2.919a.711.711,0,0,0-.088.108l-.629.943a1.927,1.927,0,0,1-1.607.86.706.706,0,0,0-.564.282l-1.67,2.227a.784.784,0,0,1-1.28-.905l1.279-1.918a.706.706,0,0,0-.587-1.1h-2.822a.706.706,0,0,0-.587.314l-.746,1.119a1.59,1.59,0,0,0-.254-.022h-1.8Z" transform="translate(-102.122 -72.944)" fill="#fbc000"/>
  </g>
</svg>
