<svg xmlns="http://www.w3.org/2000/svg" width="40.993" height="40.986" viewBox="0 0 40.993 40.986">
  <g id="programy-wykonczeniowe_s5_4" transform="translate(0 -0.039)">
    <path id="Path_193" data-name="Path 193" d="M216.593,97.538a2.051,2.051,0,0,0-3.757-.492l-.342.594a.683.683,0,0,0-.929.246l-1.735,2.958-.594-.342a.682.682,0,1,0-.683,1.182l.594.342-5.806,10.062-1.435,3.832-.683,1.277a2.05,2.05,0,0,0,.109,2.213L199.8,121.3l-.43-1.079a1.366,1.366,0,0,0-2.439-.191l-.246.417-.232-2.732a1.366,1.366,0,0,0-2.657-.321l-1.68,5.041a.683.683,0,0,0,.43.861.591.591,0,0,0,.212.054.683.683,0,0,0,.649-.464l1.673-5.041.239,2.773a1.366,1.366,0,0,0,2.534.588l.253-.417.424,1.073a1.366,1.366,0,0,0,2.336.348l1.592-2.015a2.1,2.1,0,0,0,.54.068,2.049,2.049,0,0,0,1.783-1.011l.683-1.141,2.6-3.163,5.868-10.185.594.342a.685.685,0,0,1,.253.936l-2.732,4.734a.678.678,0,1,0,1.154.71l2.732-4.734a2.049,2.049,0,0,0-.751-2.8l-.594-.342,1.708-2.958a.683.683,0,0,0-.246-.929l.342-.594a2.049,2.049,0,0,0,.2-1.585Zm-2.575.191a.683.683,0,0,1,.417-.321.717.717,0,0,1,.519.068.684.684,0,0,1,.321.417.717.717,0,0,1-.068.519l-.342.594-1.189-.683ZM204.707,116.8l-.342-.2-1.011-.588.97-2.6,2.152,1.243Zm-2.049,1.974a.683.683,0,0,1-.2-.895l.342-.594,1.188.683-.342.587a.683.683,0,0,1-.984.218Zm4.6-5.232-2.364-1.366,5.465-9.468,2.364,1.366Zm6.148-10.65-2.364-1.366,1.366-2.364,2.364,1.366Zm0,0" transform="translate(-175.675 -87.785)" fill="#fbc000"/>
    <path id="Path_194" data-name="Path 194" d="M72.344,356.761l-2.418,2.412-1.448-1.448a.684.684,0,1,0-.963.97l1.448,1.448a1.377,1.377,0,0,0,1.933,0l2.411-2.418a.683.683,0,0,0-.963-.963Zm0,0" transform="translate(-61.565 -326.112)" fill="#fbc000"/>
    <path id="Path_195" data-name="Path 195" d="M32,317.847a5.806,5.806,0,0,0,11.613,0,.683.683,0,1,0-1.366,0A4.441,4.441,0,1,1,40.47,314.3a.683.683,0,0,0,.82-1.093A5.806,5.806,0,0,0,32,317.847Zm0,0" transform="translate(-29.268 -285.361)" fill="#024282"/>
    <path id="Path_196" data-name="Path 196" d="M90.444,49.405a.683.683,0,1,0,0-1.366H72.683a.683.683,0,0,0-.683.683v2.732a.683.683,0,0,0,.683.683H90.444a.683.683,0,1,0,0-1.366H73.366V49.405Zm0,0" transform="translate(-65.852 -43.901)" fill="#024282"/>
    <path id="Path_197" data-name="Path 197" d="M96.683,112.039a.683.683,0,0,0,0,1.366h13.662a.683.683,0,0,0,0-1.366Zm0,0" transform="translate(-87.803 -102.437)" fill="#024282"/>
    <path id="Path_198" data-name="Path 198" d="M143.711,168.039H128.683a.683.683,0,0,0,0,1.366h15.028a.683.683,0,0,0,0-1.366Zm0,0" transform="translate(-117.07 -153.655)" fill="#024282"/>
    <path id="Path_199" data-name="Path 199" d="M71.028,216.722a.683.683,0,0,0-.683-.683H56.683a.683.683,0,0,0,0,1.366H70.345A.683.683,0,0,0,71.028,216.722Zm0,0" transform="translate(-51.218 -197.556)" fill="#024282"/>
    <path id="Path_200" data-name="Path 200" d="M253.465,216.039h-4.782a.683.683,0,0,0,0,1.366h4.782a.683.683,0,0,0,0-1.366Zm0,0" transform="translate(-226.824 -197.556)" fill="#024282"/>
    <path id="Path_201" data-name="Path 201" d="M63.514,257.405a.683.683,0,0,0,0-1.366H56.683a.683.683,0,0,0,0,1.366Zm0,0" transform="translate(-51.218 -234.141)" fill="#024282"/>
    <path id="Path_202" data-name="Path 202" d="M168.683,257.405h4.782a.683.683,0,1,0,0-1.366h-4.782a.683.683,0,0,0,0,1.366Zm0,0" transform="translate(-153.655 -234.141)" fill="#024282"/>
    <path id="Path_203" data-name="Path 203" d="M30.74,31.462a.683.683,0,0,0-.683.683v6.831a.683.683,0,0,1-.683.683H2.049a.683.683,0,0,1-.683-.683V2.088a.683.683,0,0,1,.683-.683H29.373a.683.683,0,0,1,.683.683V14.917a.683.683,0,1,0,1.366,0V2.088A2.049,2.049,0,0,0,29.373.039H2.049A2.049,2.049,0,0,0,0,2.088V38.976a2.049,2.049,0,0,0,2.049,2.049H29.373a2.049,2.049,0,0,0,2.049-2.049V32.145A.683.683,0,0,0,30.74,31.462Zm0,0" fill="#024282"/>
  </g>
</svg>
