<svg xmlns="http://www.w3.org/2000/svg" width="41.227" height="41.579" viewBox="0 0 41.227 41.579">
  <g id="programy-wykonczeniowe_s2_1" transform="translate(-1.57 -2.115)">
    <path id="Path_183" data-name="Path 183" d="M13.838,43.7a3.826,3.826,0,0,1-3.824-3.819V9.593a.594.594,0,0,1,1.188,0V39.878a2.637,2.637,0,1,0,5.274,0V37.045a.594.594,0,0,1,.594-.594H40.6V5.95a2.64,2.64,0,0,0-2.637-2.637H7.07a.594.594,0,1,1,0-1.188H37.962A3.829,3.829,0,0,1,41.787,5.95v31.1a.594.594,0,0,1-.594.594H17.663v2.239A3.827,3.827,0,0,1,13.838,43.7Z" transform="translate(-1.992 -0.004)" fill="#024282"/>
    <path id="Path_184" data-name="Path 184" d="M45.6,67.171H18.468a.594.594,0,0,1,0-1.188A2.637,2.637,0,0,0,21.1,63.352V60.519a.594.594,0,0,1,.594-.594H48.825a.594.594,0,0,1,.594.594v2.833A3.822,3.822,0,0,1,45.6,67.171ZM21.238,65.983H45.6a2.633,2.633,0,0,0,2.63-2.631V61.113H22.293v2.239a3.8,3.8,0,0,1-1.055,2.631Z" transform="translate(-6.621 -23.477)" fill="#024282"/>
    <path id="Path_185" data-name="Path 185" d="M30.319,48.4a.594.594,0,0,1-.526-.318l-.868-1.654-1.778.568a.594.594,0,0,1-.728-.8l2.534-5.935a.594.594,0,1,1,1.093.466l-2.025,4.741,1.016-.324a.594.594,0,0,1,.707.289l.518.986,2.172-5.108a.594.594,0,1,1,1.093.464l-2.663,6.26a.594.594,0,0,1-.521.361Z" transform="translate(-10.072 -15.344)" fill="#fbc000"/>
    <path id="Path_186" data-name="Path 186" d="M42.07,48.4h-.024a.594.594,0,0,1-.523-.361l-2.655-6.263a.594.594,0,1,1,1.094-.464l2.167,5.108.517-.985a.594.594,0,0,1,.707-.289l1.015.324-2.022-4.728a.594.594,0,1,1,1.092-.467l2.532,5.924a.594.594,0,0,1-.726.8l-1.778-.568L42.6,48.079a.594.594,0,0,1-.526.318Z" transform="translate(-15.127 -15.343)" fill="#fbc000"/>
    <path id="Path_187" data-name="Path 187" d="M32.989,32.838a1.448,1.448,0,0,1-.891-.306l-.947-.737a.279.279,0,0,0-.2-.052l-1.188.165a1.444,1.444,0,0,1-1.544-.891l-.45-1.11a.267.267,0,0,0-.145-.148l-1.11-.45a1.447,1.447,0,0,1-.891-1.544l.165-1.188a.258.258,0,0,0-.053-.2L25,25.43a1.447,1.447,0,0,1,0-1.782l.736-.95a.262.262,0,0,0,.053-.2l-.165-1.188a1.447,1.447,0,0,1,.891-1.544l1.111-.45a.259.259,0,0,0,.144-.144l.45-1.111a1.446,1.446,0,0,1,1.544-.891l1.188.165a.26.26,0,0,0,.2-.053l.947-.736a1.45,1.45,0,0,1,1.782,0l.947.737a.26.26,0,0,0,.2.053l1.188-.165a1.447,1.447,0,0,1,1.544.891l.45,1.111a.264.264,0,0,0,.146.145l1.11.45a1.449,1.449,0,0,1,.891,1.544L40.188,22.5a.266.266,0,0,0,.053.2l.736.95a1.446,1.446,0,0,1,0,1.782l-.737.947a.267.267,0,0,0-.052.2l.165,1.188a1.449,1.449,0,0,1-.891,1.544l-1.113.453a.266.266,0,0,0-.146.145l-.449,1.11a1.449,1.449,0,0,1-1.544.891l-1.188-.165a.268.268,0,0,0-.2.053l-.947.736A1.446,1.446,0,0,1,32.989,32.838Zm-2-2.286a1.462,1.462,0,0,1,.891.3l.95.738a.263.263,0,0,0,.322,0l.947-.737a1.459,1.459,0,0,1,1.09-.292l1.188.165a.254.254,0,0,0,.279-.161l.45-1.111a1.457,1.457,0,0,1,.8-.8l1.111-.45a.262.262,0,0,0,.161-.279l-.165-1.188a1.456,1.456,0,0,1,.29-1.089l.738-.95a.261.261,0,0,0,0-.321l-.736-.95a1.456,1.456,0,0,1-.293-1.086l.165-1.188a.262.262,0,0,0-.161-.279l-1.111-.45a1.456,1.456,0,0,1-.8-.8l-.45-1.111a.26.26,0,0,0-.279-.162l-1.188.165a1.455,1.455,0,0,1-1.089-.292l-.95-.737a.261.261,0,0,0-.322,0l-.95.736a1.468,1.468,0,0,1-1.089.292L29.6,18.357a.263.263,0,0,0-.279.162l-.45,1.111a1.456,1.456,0,0,1-.8.8l-1.111.45a.263.263,0,0,0-.162.279l.165,1.188a1.454,1.454,0,0,1-.293,1.09l-.731.948a.261.261,0,0,0,0,.322l.737.95a1.457,1.457,0,0,1,.292,1.089L26.8,27.932a.262.262,0,0,0,.162.279l1.111.45a1.458,1.458,0,0,1,.8.8l.45,1.111a.263.263,0,0,0,.279.161l1.188-.165A1.467,1.467,0,0,1,30.988,30.552Z" transform="translate(-9.391 -5.737)" fill="#024282"/>
    <path id="Path_188" data-name="Path 188" d="M32.989,32.838a1.448,1.448,0,0,1-.891-.306l-.947-.737a.279.279,0,0,0-.2-.052l-1.188.165a1.444,1.444,0,0,1-1.544-.891l-.45-1.11a.267.267,0,0,0-.145-.148l-1.11-.45a1.447,1.447,0,0,1-.891-1.544l.165-1.188a.258.258,0,0,0-.053-.2L25,25.43a1.447,1.447,0,0,1,0-1.782l.736-.95a.262.262,0,0,0,.053-.2l-.165-1.188a1.447,1.447,0,0,1,.891-1.544l1.111-.45a.259.259,0,0,0,.144-.144l.45-1.111a1.446,1.446,0,0,1,1.544-.891l1.188.165a.26.26,0,0,0,.2-.053l.947-.736a1.45,1.45,0,0,1,1.782,0l.947.737a.26.26,0,0,0,.2.053l1.188-.165a1.447,1.447,0,0,1,1.544.891l.45,1.111a.264.264,0,0,0,.146.145l1.11.45a1.449,1.449,0,0,1,.891,1.544L40.188,22.5a.266.266,0,0,0,.053.2l.736.95a1.446,1.446,0,0,1,0,1.782l-.737.947a.267.267,0,0,0-.052.2l.165,1.188a1.449,1.449,0,0,1-.891,1.544l-1.113.453a.266.266,0,0,0-.146.145l-.449,1.11a1.449,1.449,0,0,1-1.544.891l-1.188-.165a.268.268,0,0,0-.2.053l-.947.736A1.446,1.446,0,0,1,32.989,32.838Zm-2-2.286a1.462,1.462,0,0,1,.891.3l.95.738a.263.263,0,0,0,.322,0l.947-.737a1.459,1.459,0,0,1,1.09-.292l1.188.165a.254.254,0,0,0,.279-.161l.45-1.111a1.457,1.457,0,0,1,.8-.8l1.111-.45a.262.262,0,0,0,.161-.279l-.165-1.188a1.456,1.456,0,0,1,.29-1.089l.738-.95a.261.261,0,0,0,0-.321l-.736-.95a1.456,1.456,0,0,1-.293-1.086l.165-1.188a.262.262,0,0,0-.161-.279l-1.111-.45a1.456,1.456,0,0,1-.8-.8l-.45-1.111a.26.26,0,0,0-.279-.162l-1.188.165a1.455,1.455,0,0,1-1.089-.292l-.95-.737a.261.261,0,0,0-.322,0l-.95.736a1.468,1.468,0,0,1-1.089.292L29.6,18.357a.263.263,0,0,0-.279.162l-.45,1.111a1.456,1.456,0,0,1-.8.8l-1.111.45a.263.263,0,0,0-.162.279l.165,1.188a1.454,1.454,0,0,1-.293,1.09l-.731.948a.261.261,0,0,0,0,.322l.737.95a1.457,1.457,0,0,1,.292,1.089L26.8,27.932a.262.262,0,0,0,.162.279l1.111.45a1.458,1.458,0,0,1,.8.8l.45,1.111a.263.263,0,0,0,.279.161l1.188-.165A1.467,1.467,0,0,1,30.988,30.552Z" transform="translate(-9.391 -5.737)" fill="#024282"/>
    <path id="Path_189" data-name="Path 189" d="M33.818,31.455a.594.594,0,0,1-.585-.694l.349-2.038L32.1,27.279a.594.594,0,0,1,.329-1.01l2.047-.3.915-1.854a.618.618,0,0,1,1.065,0l.917,1.851,2.046.3a.594.594,0,0,1,.33,1.013l-1.485,1.444.349,2.038a.594.594,0,0,1-.861.626l-1.831-.962-1.83.962A.594.594,0,0,1,33.818,31.455Zm2.107-2.3a.594.594,0,0,1,.276.068l1.042.548-.2-1.16a.594.594,0,0,1,.17-.526l.843-.821L36.893,27.1a.594.594,0,0,1-.447-.325l-.521-1.056L35.4,26.775a.594.594,0,0,1-.447.325l-1.165.169.843.821a.594.594,0,0,1,.17.526l-.2,1.16,1.041-.548a.6.6,0,0,1,.277-.069Z" transform="translate(-12.327 -8.812)" fill="#fbc000"/>
    <path id="Path_190" data-name="Path 190" d="M8.625,10.183H2.164a.594.594,0,0,1-.594-.594V5.94a3.825,3.825,0,1,1,7.649,0v3.65a.594.594,0,0,1-.594.594ZM2.758,9H8.031V5.94a2.637,2.637,0,1,0-5.274,0Z" transform="translate(0 0)" fill="#024282"/>
  </g>
</svg>
