<svg xmlns="http://www.w3.org/2000/svg" width="46.701" height="46.599" viewBox="0 0 46.701 46.599">
  <g id="realization" transform="translate(-4 -4.123)">
    <path id="Path_87" data-name="Path 87" d="M11.8,36.47l-1.176,1.176A.832.832,0,1,0,11.8,38.822l1.176-1.176A.834.834,0,0,0,11.8,36.47Z" transform="translate(-1.059 -5.338)" fill="#fbc000"/>
    <path id="Path_88" data-name="Path 88" d="M19.107,27.7l-3.536,3.561a.832.832,0,1,0,1.176,1.176L20.283,28.9a.834.834,0,0,0-1.176-1.176Z" transform="translate(-1.88 -3.885)" fill="#fbc000"/>
    <path id="Path_89" data-name="Path 89" d="M50.4,16.721l-5.629-4.687A8.281,8.281,0,0,0,32.888,5.688,10.841,10.841,0,0,0,17.226,19.031L4.25,31.782a.834.834,0,0,0-.25.592v5a.834.834,0,0,0,.834.834h5a.834.834,0,0,0,.684-.35l.434-.625,4.011-.067a1.768,1.768,0,0,0,1.718-1.918l-.325-3.486,4.27.525a1.96,1.96,0,0,0,2.16-2.418l-.834-3.7,1.193-1.193a10.841,10.841,0,0,0,5.888.667V49.887a.834.834,0,0,0,.834.834h20a.834.834,0,0,0,.834-.834V17.364a.834.834,0,0,0-.3-.642ZM42.428,10.05l-.25-.2a3.6,3.6,0,0,0-4.637,0l-.517.425a10.625,10.625,0,0,0-2.11-3c-.15-.15-.309-.284-.467-.425a6.5,6.5,0,0,1,2.077-.325,6.672,6.672,0,0,1,5.9,3.553Zm-.067,9.816A2.5,2.5,0,0,1,37.9,21.4a8.206,8.206,0,0,0,4.37-2.185A2.785,2.785,0,0,1,42.362,19.865Zm-5-.058A2.5,2.5,0,0,1,41.3,17.831a6.672,6.672,0,0,1-3.945,1.976ZM23.306,23.2a.834.834,0,0,0-.951.158l-1.926,1.96a.834.834,0,0,0-.217.776l.951,4.17a.284.284,0,0,1-.058.292.292.292,0,0,1-.267.092l-4.687-.575a.834.834,0,0,0-.692.242l-.559.55a.834.834,0,0,0-.234.667l.359,3.886-.092.1-4.428.075a.834.834,0,0,0-.667.359l-.434.609H5.668V32.725L18.811,19.865a.834.834,0,0,0,.167-.959,9.173,9.173,0,0,1,12.3-12.176,8.34,8.34,0,0,0-1.96,2.293h-.3a4.17,4.17,0,1,0,2.952,1.218,4.4,4.4,0,0,0-1-.717,6.571,6.571,0,0,1,1.843-1.843A9.173,9.173,0,0,1,23.306,23.2ZM27.25,11.392a2.5,2.5,0,0,1,1.318-.692,8.2,8.2,0,0,0-.384,2.494,8.031,8.031,0,0,0,.384,2.435,2.435,2.435,0,0,1-1.318-.667,2.5,2.5,0,0,1,0-3.536Zm2.969,3.936a6.613,6.613,0,0,1-.367-2.135,6.463,6.463,0,0,1,.375-2.177,2.4,2.4,0,0,1,.559.409,2.5,2.5,0,0,1,0,3.536,2.252,2.252,0,0,1-.567.4ZM49.033,49.054H30.686V25.211a10.766,10.766,0,0,0,4.228-2.585,10.45,10.45,0,0,0,.984-1.092h.133a4.2,4.2,0,1,0,1.993-5.4,10.841,10.841,0,0,0-.375-4.17l.959-.834a1.96,1.96,0,0,1,2.5,0l7.923,6.622Z" transform="translate(0 0)" fill="#024282"/>
    <path id="Path_90" data-name="Path 90" d="M50.834,32a.834.834,0,0,0-.834.834V46.177a.834.834,0,0,0,1.668,0V32.834A.834.834,0,0,0,50.834,32Z" transform="translate(-7.638 -4.629)" fill="#fbc000"/>
    <path id="Path_91" data-name="Path 91" d="M42.834,32a.834.834,0,0,0-.834.834v7.506a.834.834,0,1,0,1.668,0V32.834A.834.834,0,0,0,42.834,32Z" transform="translate(-6.31 -4.629)" fill="#fbc000"/>
    <path id="Path_92" data-name="Path 92" d="M42.834,45a.834.834,0,0,0-.834.834v2.5a.834.834,0,1,0,1.668,0v-2.5A.834.834,0,0,0,42.834,45Z" transform="translate(-6.31 -6.788)" fill="#fbc000"/>
  </g>
</svg>
