<svg xmlns="http://www.w3.org/2000/svg" width="10.265" height="10.265" viewBox="0 0 10.265 10.265">
  <g id="rooms" transform="translate(-6 -6)">
    <path id="Path_96" data-name="Path 96" d="M16.068,6H6.2a.2.2,0,0,0-.2.2v9.871a.2.2,0,0,0,.2.2h5.841a.2.2,0,0,0,.2-.2V12.7a.2.2,0,0,0-.395,0v3.174H6.395V12.894h3.729a.2.2,0,0,0,.2-.2V10.844a.2.2,0,1,0-.395,0V12.5H6.395V9.159h3.729a.2.2,0,0,0,.2-.2V6.395h2.136V7.761a.2.2,0,1,0,.395,0V6.395h3.018V9.332H12.655a.2.2,0,0,0,0,.395h3.216v2.764H13.764a.2.2,0,0,0,0,.395h2.106v2.985H14.094a.2.2,0,1,0,0,.395h1.974a.2.2,0,0,0,.2-.2V6.2A.2.2,0,0,0,16.068,6ZM9.927,8.764H6.395V6.395H9.927Z" fill="#024282"/>
  </g>
</svg>
