<svg xmlns="http://www.w3.org/2000/svg" xmlns:xlink="http://www.w3.org/1999/xlink" width="38.108" height="54" viewBox="0 0 38.108 54">
  <defs>
    <clipPath id="clip-path">
      <rect id="Rectangle_378" data-name="Rectangle 378" width="31.774" height="41.643" fill="none"/>
    </clipPath>
  </defs>
  <g id="services-quality" transform="translate(-295 -3478.849)">
    <path id="expertise" d="M48.045,7.532l1.766,1.494-.551,2.247a.512.512,0,0,0,.768.558l1.967-1.218,1.967,1.218a.513.513,0,0,0,.768-.558l-.551-2.247,1.766-1.494a.513.513,0,0,0-.293-.9l-2.307-.17-.875-2.141a.513.513,0,0,0-.949,0l-.875,2.141-2.307.17a.513.513,0,0,0-.293.9Zm2.992-.074a.513.513,0,0,0,.437-.317l.521-1.274.521,1.274a.513.513,0,0,0,.437.317l1.373.1-1.051.889a.513.513,0,0,0-.167.513l.328,1.337-1.17-.725a.512.512,0,0,0-.54,0l-1.17.725.328-1.337a.513.513,0,0,0-.167-.513l-1.051-.889,1.373-.1ZM39.379,11.97l2.276.411L42.3,14.6a.512.512,0,0,0,.438.366l.054,0a.513.513,0,0,0,.451-.27l1.094-2.038,2.312.072a.513.513,0,0,0,.386-.867l-1.6-1.67.783-2.177a.512.512,0,0,0-.705-.635L43.432,8.392,41.6,6.975a.512.512,0,0,0-.822.474l.313,2.292-1.913,1.3a.512.512,0,0,0,.2.928Zm2.554-1.56a.513.513,0,0,0,.22-.493l-.186-1.364,1.088.843a.512.512,0,0,0,.537.056l1.24-.6-.466,1.3a.512.512,0,0,0,.112.528l.952.994-1.376-.043a.513.513,0,0,0-.467.27l-.651,1.213-.385-1.322a.513.513,0,0,0-.4-.361L40.8,11.184l1.138-.774Zm-1.159,6.762a.512.512,0,0,0-.1-.944l-2.221-.646-.411-2.276a.512.512,0,0,0-.928-.2l-1.3,1.913-2.292-.313a.512.512,0,0,0-.474.822l1.417,1.828-1.006,2.083a.513.513,0,0,0,.635.705l2.177-.783,1.67,1.6a.513.513,0,0,0,.867-.386l-.072-2.312,2.038-1.094Zm-2.8.341a.512.512,0,0,0-.27.467l.043,1.376-.994-.952a.513.513,0,0,0-.528-.112l-1.3.466.6-1.24a.512.512,0,0,0-.056-.537l-.843-1.088,1.364.186a.512.512,0,0,0,.493-.219l.774-1.138.244,1.355a.512.512,0,0,0,.361.4l1.322.385-1.213.651Zm19.365-4.779,2.312-.072L60.743,14.7a.513.513,0,0,0,.451.27l.054,0a.513.513,0,0,0,.439-.366l.646-2.221,2.277-.411a.512.512,0,0,0,.2-.928l-1.913-1.3.313-2.292a.512.512,0,0,0-.822-.474L60.557,8.392,58.474,7.386a.512.512,0,0,0-.705.635l.783,2.177-1.6,1.67a.513.513,0,0,0,.386.867Zm2.286-2.585-.466-1.3,1.24.6a.513.513,0,0,0,.537-.056l1.088-.843-.186,1.364a.512.512,0,0,0,.22.493l1.138.774-1.355.244a.512.512,0,0,0-.4.361l-.385,1.322L60.4,11.9a.512.512,0,0,0-.452-.27h-.016l-1.376.043.952-.994A.512.512,0,0,0,59.623,10.15Zm11.356,4.81a.513.513,0,0,0-.513-.252l-2.292.313-1.3-1.913a.512.512,0,0,0-.928.2l-.411,2.276-2.221.646a.512.512,0,0,0-.1.944l2.038,1.094-.072,2.312a.513.513,0,0,0,.867.386l1.67-1.6,2.177.783a.513.513,0,0,0,.635-.705l-1.006-2.083,1.417-1.828a.513.513,0,0,0,.039-.57Zm-2.517,2.558.6,1.24-1.3-.466a.513.513,0,0,0-.528.112l-.994.952.043-1.376a.513.513,0,0,0-.27-.467L64.8,16.863l1.322-.385a.512.512,0,0,0,.361-.4l.244-1.355.774,1.138A.512.512,0,0,0,68,16.08l1.364-.186-.843,1.088a.513.513,0,0,0-.056.537Z" transform="translate(262.06 3474.85)" fill="#fbc000"/>
    <g id="Group_281" data-name="Group 281" transform="translate(297.62 3491.206)">
      <g id="Group_280" data-name="Group 280" clip-path="url(#clip-path)">
        <path id="Path_75" data-name="Path 75" d="M30.071,12.17H29.039a13.57,13.57,0,0,0-1.224-2.959l.728-.728a1.7,1.7,0,0,0,0-2.408l0,0L25.7,3.229a1.7,1.7,0,0,0-2.408,0l0,0-.729.729A13.569,13.569,0,0,0,19.6,2.735V1.7A1.708,1.708,0,0,0,17.9,0h-4.02a1.7,1.7,0,0,0-1.7,1.7V2.734A13.558,13.558,0,0,0,9.216,3.958l-.728-.728a1.708,1.708,0,0,0-2.413,0L3.23,6.069a1.708,1.708,0,0,0,0,2.413l.728.728a13.579,13.579,0,0,0-1.224,2.959H1.7a1.7,1.7,0,0,0-1.7,1.7V17.89a1.7,1.7,0,0,0,1.7,1.7H2.73a13.568,13.568,0,0,0,1.224,2.96l-.728.728a1.708,1.708,0,0,0,0,2.413l1.345,1.345L1.54,38.377a.625.625,0,0,0,.893.715l5.255-2.754,3.174,5.012a.625.625,0,0,0,1.131-.172l2.519-9.4h2.749l2.519,9.4a.625.625,0,0,0,1.131.172l3.174-5.012,5.253,2.754a.625.625,0,0,0,.893-.715L27.2,27.048,28.543,25.7a1.7,1.7,0,0,0,0-2.408l0,0-.728-.728a13.578,13.578,0,0,0,1.224-2.96h1.031a1.7,1.7,0,0,0,1.7-1.7V13.877a1.7,1.7,0,0,0-1.7-1.7ZM11.155,39.478l-2.72-4.295a.625.625,0,0,0-.817-.219l-4.5,2.36,2.48-9.26.475.475a1.7,1.7,0,0,0,2.408,0l0,0,.728-.728a13.57,13.57,0,0,0,2.959,1.224v1.031A1.7,1.7,0,0,0,13.25,31.65l-2.1,7.822Zm17.5-2.154-4.5-2.36a.625.625,0,0,0-.817.219l-2.72,4.295-2.1-7.822A1.7,1.7,0,0,0,19.6,30.071V29.038a13.558,13.558,0,0,0,2.959-1.224l.729.729a1.7,1.7,0,0,0,2.408,0l0,0,.475-.475,2.48,9.26Zm1.87-19.43a.458.458,0,0,1-.457.457H28.557a.625.625,0,0,0-.607.477A12.325,12.325,0,0,1,26.5,22.34a.625.625,0,0,0,.092.766l1.064,1.064a.459.459,0,0,1,0,.646l-2.841,2.841a.459.459,0,0,1-.646,0L23.1,26.593a.625.625,0,0,0-.766-.091,12.33,12.33,0,0,1-3.513,1.452.625.625,0,0,0-.477.607v1.51a.458.458,0,0,1-.457.457H13.878a.458.458,0,0,1-.457-.457V28.557a.625.625,0,0,0-.477-.607A12.322,12.322,0,0,1,9.432,26.5a.625.625,0,0,0-.766.092L7.6,27.656a.459.459,0,0,1-.646,0L4.114,24.823a.458.458,0,0,1,0-.646l1.064-1.064a.625.625,0,0,0,.092-.766,12.328,12.328,0,0,1-1.452-3.513.625.625,0,0,0-.607-.478H1.7A.458.458,0,0,1,1.24,17.9V13.878a.458.458,0,0,1,.457-.457H3.21a.625.625,0,0,0,.607-.478A12.33,12.33,0,0,1,5.269,9.431a.625.625,0,0,0-.091-.766L4.113,7.6a.458.458,0,0,1,0-.646L6.954,4.113a.458.458,0,0,1,.646,0L8.664,5.177a.625.625,0,0,0,.766.092,12.323,12.323,0,0,1,3.518-1.447.625.625,0,0,0,.477-.607V1.7a.458.458,0,0,1,.457-.457H17.9a.458.458,0,0,1,.457.457V3.216a.625.625,0,0,0,.477.607,12.332,12.332,0,0,1,3.513,1.452.625.625,0,0,0,.766-.092l1.064-1.064a.459.459,0,0,1,.646,0l2.841,2.841a.459.459,0,0,1,0,.646L26.6,8.67a.625.625,0,0,0-.091.766,12.33,12.33,0,0,1,1.452,3.513.625.625,0,0,0,.607.477h1.514a.458.458,0,0,1,.457.457V17.9ZM15.885,6.109A9.771,9.771,0,0,0,8.258,21.995a.62.62,0,0,0,.086.106,9.766,9.766,0,0,0,15.082,0,.623.623,0,0,0,.087-.106A9.771,9.771,0,0,0,15.886,6.109Zm0,18.308a8.509,8.509,0,0,1-6.43-2.936c.391-1.648,2.1-2.854,4.655-3.269a4.387,4.387,0,0,0,3.551,0c2.555.416,4.264,1.621,4.655,3.269a8.509,8.509,0,0,1-6.429,2.936Zm0-7.078a3.152,3.152,0,1,1,3.153-3.159,3.152,3.152,0,0,1-3.153,3.159ZM23.2,20.266a6.249,6.249,0,0,0-4.151-3.028,4.4,4.4,0,1,0-6.332,0,6.249,6.249,0,0,0-4.151,3.028,8.528,8.528,0,1,1,14.629,0Z" transform="translate(0 0.001)" fill="#00346d"/>
      </g>
    </g>
  </g>
</svg>
