<svg xmlns="http://www.w3.org/2000/svg" width="12.719" height="12.531" viewBox="0 0 12.719 12.531">
  <g id="shovels" transform="translate(-1 -1)">
    <path id="Path_269" data-name="Path 269" d="M0,0H.572V.4H0Z" transform="translate(2.473 12.579) rotate(-45)" fill="#024282"/>
    <path id="Path_270" data-name="Path 270" d="M13.641,55H13v.4h.641a.2.2,0,0,1,.143.059l.286.286.286-.286-.286-.286A.6.6,0,0,0,13.641,55Z" transform="translate(-9.575 -43.086)" fill="#024282"/>
    <path id="Path_271" data-name="Path 271" d="M13.719,13.119h-.757a2.939,2.939,0,0,0,.57-1.742V9.085a.4.4,0,0,0-.4-.4H11.914V4.152A2.381,2.381,0,0,0,13.127,2.07V1.4a.4.4,0,0,0-.4-.4H9.489a.4.4,0,0,0-.4.4V2.07A2.381,2.381,0,0,0,10.3,4.152V8.681H9.085a.4.4,0,0,0-.4.4v2.293c0,.044.006.089.008.133H8.276a.814.814,0,0,0-.485.162l-.323.243H7.315a.4.4,0,0,1-.286-.118l-.821-.821a.934.934,0,0,0-1.321,0l-.048.048a1.183,1.183,0,0,0-.2-.153V9.489H5.4A2.068,2.068,0,0,0,7.468,7.423V7.032l-1.46.209a2.044,2.044,0,0,0-.641.206A2.663,2.663,0,0,0,5,5.317l-.561-.841-.561.842A2.668,2.668,0,0,0,3.425,6.8c0,.069,0,.138.009.206a2.07,2.07,0,0,0-.57-.171L1.4,6.628v.391A2.068,2.068,0,0,0,3.47,9.085h.764V10.72a1.2,1.2,0,0,0-.2-.018,1.171,1.171,0,0,0-.578.152l-.505-.127a.88.88,0,0,0-.892.3l-.418.523a.6.6,0,0,0-.324.293l-.223.447a.856.856,0,0,0,.765,1.239h0l11.863-.008ZM6.065,7.641l1-.142A1.664,1.664,0,0,1,5.4,9.085H4.9a3.486,3.486,0,0,1,1.026-.621l-.15-.375a3.965,3.965,0,0,0-1.02.588A1.67,1.67,0,0,1,6.065,7.641Zm-1.853-2.1L4.436,5.2l.225.337a2.272,2.272,0,0,1,.074,2.4c-.034.039-.066.08-.1.122V6.457h-.4V8.094a2.268,2.268,0,0,1-.023-2.552ZM1.81,7.095l1,.142a1.665,1.665,0,0,1,.72.288,2.669,2.669,0,0,0,.177.461,4.214,4.214,0,0,0-.609-.3l-.15.375a3.494,3.494,0,0,1,1.026.621h-.5A1.664,1.664,0,0,1,1.81,7.095Zm9.7,1.182H10.7V3.628a.2.2,0,0,1,.2-.2h.4a.2.2,0,0,1,.2.2Zm-.808.4h.808v.309a2.784,2.784,0,0,1-.292,1.239.129.129,0,0,1-.223,0A2.78,2.78,0,0,1,10.7,8.989ZM12.723,1.4v.4H9.489V1.4ZM9.5,2.213h3.214a1.972,1.972,0,0,1-.8,1.455V3.628a.607.607,0,0,0-.606-.606h-.4a.607.607,0,0,0-.606.606v.041A1.972,1.972,0,0,1,9.5,2.213ZM9.085,9.085H10.3a3.186,3.186,0,0,0,.33,1.324.529.529,0,0,0,.947,0,3.189,3.189,0,0,0,.33-1.324h1.218v2.293a2.537,2.537,0,0,1-.689,1.742h-.6l-.233-.466a.6.6,0,0,0-.542-.335h-.181l-.03-.044a.807.807,0,0,0-.672-.36h-.3a.4.4,0,0,1-.224-.068l-.3-.2a.8.8,0,0,0-.255-.11c0-.053-.01-.106-.01-.158Zm1.484,3.75a.2.2,0,0,1,.181-.112h.309a.2.2,0,0,1,.181.112l.143.286h-.957Zm-2.292-.92H8.9a.4.4,0,0,1,.224.068l.3.2a.806.806,0,0,0,.448.136h.3a.4.4,0,0,1,.253.092.606.606,0,0,0-.221.244l-.234.468H8.6l-.381-.761a.807.807,0,0,0-.268-.305L8.034,12a.406.406,0,0,1,.243-.081Zm-6.42,1.212h0a.452.452,0,0,1-.452-.452.455.455,0,0,1,.048-.2l.224-.447a.2.2,0,0,1,.181-.112h.559v-.4H2.189l.183-.229a.472.472,0,0,1,.478-.162l.221.055-.192.192.286.286.321-.321a.793.793,0,0,1,1.094,0l.523.523.286-.286-.261-.261.047-.047a.543.543,0,0,1,.749,0l.821.821a.8.8,0,0,0,.572.237H7.5a.4.4,0,0,1,.362.223l.29.58Z" fill="#024282"/>
    <path id="Path_272" data-name="Path 272" d="M0,0H.572V.4H0Z" transform="translate(5.504 12.377) rotate(-45)" fill="#024282"/>
  </g>
</svg>
