<svg xmlns="http://www.w3.org/2000/svg" width="12.891" height="12.34" viewBox="0 0 12.891 12.34">
  <g id="terrace" transform="translate(0 -10.931)">
    <path id="Path_268" data-name="Path 268" d="M12.7,15.164a.189.189,0,0,0,.189-.189V13.846a.191.191,0,0,0-.116-.178L6.83,11.013a.943.943,0,0,0-.381-.082H6.442a.944.944,0,0,0-.381.082L.116,13.668A.191.191,0,0,0,0,13.846v1.129a.189.189,0,0,0,.189.189H.714V21.03H.189A.189.189,0,0,0,0,21.219v.68a.189.189,0,0,0,.189.189H.466v.994a.189.189,0,0,0,.189.189H12.236a.189.189,0,0,0,.189-.189v-.994H12.7a.189.189,0,0,0,.189-.189v-.68a.189.189,0,0,0-.189-.189h-.525V15.164ZM9.107,13.654l-1.989-2.1,4.7,2.1Zm-4.8,0,1.953-2.06v2.06Zm-3.229,0,4.7-2.1-1.989,2.1Zm5.559-2.06,1.953,2.06H6.634ZM1.092,15.164h.327V21.03H1.092ZM12.513,21.71H9.026a.189.189,0,1,0,0,.378h3.021v.806H.844v-.806h7.3a.189.189,0,1,0,0-.378H.378v-.3H12.513ZM3.752,20.653v.378H3v-.378Zm1.372-.629H7.767v.252H5.124ZM4.532,18.89a.138.138,0,1,1,0-.277H8.359a.138.138,0,1,1,0,.277Zm3.235.378v.378H5.124v-.378ZM5.124,20.653H7.767v.378H5.124Zm5.072-.378H8.838v-.257a.113.113,0,0,1,.113-.113H9.6a.315.315,0,0,0,.315-.315v-1.6a.189.189,0,0,1,.189-.189H10.2Zm-.3.378v.378H9.139v-.378Zm1.9.378h-.327v-2.2a.189.189,0,1,0-.378,0v2.2h-.822v-.378h.112a.189.189,0,0,0,.189-.189V17.609a.189.189,0,0,0-.189-.189h-.277a.567.567,0,0,0-.566.566v1.541h-.59a.492.492,0,0,0-.491.491v.446a.189.189,0,0,0,.189.189h.112v.378H8.145V19.268h.214a.516.516,0,1,0,0-1.032H4.532a.516.516,0,1,0,0,1.032h.214V21.03H4.129v-.378h.112a.189.189,0,0,0,.189-.189v-.446a.492.492,0,0,0-.491-.491H3.35V17.986a.567.567,0,0,0-.566-.566H2.506a.189.189,0,0,0-.189.189V18.9a.189.189,0,1,0,.378,0V17.8h.088a.189.189,0,0,1,.189.189v1.6a.315.315,0,0,0,.315.315h.652a.113.113,0,0,1,.113.113v.257H2.7v-.5a.189.189,0,1,0-.378,0v.686a.189.189,0,0,0,.189.189h.112v.378H1.8V15.164H4.256a.189.189,0,1,0,0-.378H.378v-.755H12.513v.755H5.137a.189.189,0,1,0,0,.378h1.12v.279a1.205,1.205,0,0,0-1.015,1.189v.016a.189.189,0,0,0,.189.189h.215a.818.818,0,0,0,1.6,0H7.46a.189.189,0,0,0,.189-.189v-.016a1.205,1.205,0,0,0-1.015-1.189v-.279h4.46v2.787a.189.189,0,1,0,.378,0V15.164H11.8ZM5.638,16.459a.826.826,0,0,1,1.615,0Zm1.212.378a.44.44,0,0,1-.809,0Z" transform="translate(0 0)" fill="#024282"/>
  </g>
</svg>
