<svg xmlns="http://www.w3.org/2000/svg" width="10.546" height="9.497" viewBox="0 0 10.546 9.497">
  <g id="tile" transform="translate(-2.894 -7.583)">
    <path id="Path_107" data-name="Path 107" d="M12.255,50.98l-1.413-.928a.168.168,0,1,0-.184.281l1.168.767-4.9,1.739L3.435,50.528l2-.727a.168.168,0,0,0-.115-.316L3,50.327a.167.167,0,0,0-.1.207v1a.333.333,0,0,0,.085.192l3.825,2.531a.165.165,0,0,0,.186,0l5.269-1.871a.272.272,0,0,0,.124-.206V51.145A.168.168,0,0,0,12.255,50.98ZM3.238,50.8l3.5,2.315V53.8l-3.5-2.315Zm3.835,2.344,4.983-1.77V52.1L7.073,53.87Z" transform="translate(0 -37.203)" fill="#024282"/>
    <path id="Path_108" data-name="Path 108" d="M21.757,10.282a.168.168,0,0,0-.137-.165L17.832,7.61l-.009,0L17.807,7.6l-.015-.006-.015,0-.017,0h-.033l-.015,0-.018,0-.01,0-5.313,1.87a.168.168,0,0,0-.1.209v1a.164.164,0,0,0,.01.054.168.168,0,0,0,.075.138l3.825,2.532a.164.164,0,0,0,.186,0l5.269-1.87a.274.274,0,0,0,.125-.207Zm-4.04-2.346,3.474,2.3-4.9,1.739L12.8,9.666Zm-5.114,2,3.5,2.316v.687l-3.5-2.316Zm3.834,2.344,4.984-1.769v.727l-4.984,1.769Z" transform="translate(-8.316)" fill="#024282"/>
  </g>
</svg>
